<svg width="0" height="0" class="hidden">
  <symbol fill="" xmlns="http://www.w3.org/2000/svg" viewBox="0 0 24 24" id="arrow">
    <path d="M7.35 17.355 12.693 12 7.35 6.645 8.995 5l7 7-7 7-1.645-1.645Z" fill=""></path>
  </symbol>
  <symbol fill="" xmlns="http://www.w3.org/2000/svg" viewBox="0 0 16 16" id="checked">
    <path d="M5.085 11.624 1.933 8.472A.91.91 0 0 0 .646 9.759l4.439 4.439L15.359 3.924a.907.907 0 0 0-1.283-1.283l-8.991 8.983Z" fill=""></path>
  </symbol>
  <symbol fill="" xmlns="http://www.w3.org/2000/svg" viewBox="0 0 196 48" id="footer-logo">
    <path d="M16.1 7.746H.932V4.498H16.1v3.248ZM19.8 4.248h3.973l13.721 35.915h-3.972L19.801 4.248ZM58.618 40.753H37.946v-3.43h20.672v3.43ZM61.71 23.898c0-3.423.451-6.71 1.354-9.86.918-3.15 2.28-6.011 4.085-8.586C68.954 2.877 70.828 1.06 72.769 0l.857 2.771c-2.197 1.697-4.002 4.286-5.416 7.77-1.4 3.483-2.167 7.382-2.302 11.698l-.023 1.931c0 5.846 1.06 10.92 3.182 15.22 1.28 2.575 2.799 4.59 4.56 6.043L72.768 48c-2.002-1.12-3.912-2.999-5.733-5.634-3.55-5.149-5.326-11.305-5.326-18.468ZM95.583 2.338l-3.56 1.21c1.156 2.418 3.79 9.63 4.53 12.281l3.605-1.256c-.785-2.605-3.558-10.002-4.575-12.235Zm20.521 2.977-4.252-1.21c-.924 6.979-3.744 14.423-7.395 19.122-4.668 5.955-11.555 10.42-18.165 12.375l3.19 3.257c6.517-2.327 13.357-7.119 18.118-13.446 3.79-5.024 6.286-11.677 7.672-17.446.185-.744.509-1.861.832-2.652ZM82.687 5.13l-3.651 1.35c1.11 2 4.298 9.862 5.177 12.747l3.65-1.35C86.802 14.852 83.89 7.734 82.688 5.13ZM133.523 24.125c0 3.377-.444 6.618-1.332 9.723a28.455 28.455 0 0 1-4.04 8.564c-1.805 2.62-3.701 4.483-5.687 5.588l-.88-2.567c2.317-1.787 4.175-4.558 5.574-8.314 1.415-3.771 2.137-7.951 2.167-12.54v-.727c0-3.18-.331-6.133-.993-8.86-.662-2.74-1.587-5.194-2.776-7.36-1.174-2.165-2.498-3.853-3.972-5.065l.88-2.567c1.986 1.106 3.874 2.953 5.665 5.543 1.805 2.59 3.152 5.444 4.04 8.564.902 3.12 1.354 6.459 1.354 10.018ZM157.558 40.753h-20.673v-3.43h20.673v3.43ZM161.643 40.163h-3.588l13.721-35.915h3.566l-13.699 35.915ZM195.067 7.746h-15.166V4.498h15.166v3.248Z" fill=""></path>
  </symbol>
  <symbol fill="" xmlns="http://www.w3.org/2000/svg" viewBox="0 0 76 36" id="klerk">
    <g clip-path="url(#a)">
      <path d="M73.142 11c0 3.21-2.987 6-5.97 6v-6h-1.99v14h1.99v-6c2.985 0 5.97 2.791 5.97 6h1.99c0-3.94-1.99-6-4.747-7 2.757-1 4.747-3.492 4.747-7h-1.99ZM8.461 11c0 3.21-2.987 6-5.97 6v-6H.5v14h1.99v-6c2.985 0 5.97 2.791 5.97 6h1.991c0-3.94-1.99-6-4.748-7 2.758-1 4.748-3.492 4.748-7h-1.99Zm8.184 1.954-4.204 11.62 2.207.786s4.23-11.697 4.235-11.714c.107-.323.41-.32.51-.318.202-.001.443.06.55.355l4.223 11.677 2.206-.787-4.203-11.62C21.94 12.248 21.1 11 19.419 11a2.81 2.81 0 0 0-2.774 1.954ZM50.255 18c0-2.757 2.232-5 4.975-5 2.744 0 4.976 2.243 4.976 5s-2.232 5-4.976 5c-2.743 0-4.975-2.243-4.975-5Zm-1.99 0v16h1.99V22.51c.878 1.54 3.22 2.457 4.975 2.49 3.9-.033 7.042-3.166 6.966-7 .076-3.867-3.066-7-6.966-7-3.823 0-6.965 3.133-6.965 7Z" fill=""></path>
      <path d="m44.044 20.226 1.547 1.195c-.008.011-.866 1.108-1.942 3.233-1.315 2.596-1.89 4.03-1.896 4.044l-.04.089c-1.952 3.748-5.1 5.428-8.422 4.497a6.82 6.82 0 0 1-4.128-3.224 6.672 6.672 0 0 1-.608-5.162L33.104 9.06a5.429 5.429 0 0 1 2.62-3.271 5.548 5.548 0 0 1 4.198-.482c2.928.821 4.633 3.841 3.802 6.732l-.007.02-3.45 11.017.005-.021c-.626 2.175-2.813 3.403-4.98 2.796-1.042-.292-1.894-.949-2.402-1.849-.519-.918-.637-2.008-.33-3.073l3.151-10.753 1.887.54-3.15 10.747c-.161.563-.105 1.128.158 1.595.256.454.679.775 1.222.927 1.126.315 2.224-.313 2.554-1.46l.007-.022 3.445-10.997c.091-.318.135-.639.135-.955 0-1.53-1.021-2.94-2.584-3.378a3.572 3.572 0 0 0-2.703.31 3.495 3.495 0 0 0-1.688 2.107l-4.55 15.839c-.739 2.572.779 5.259 3.384 5.99 3.362.943 5.388-2.093 6.119-3.483.115-.281.707-1.704 1.945-4.148 1.175-2.32 2.113-3.512 2.152-3.561Z" fill="#EF3124"></path>
    </g>
    <defs>
      <clipPath id="a">
        <path fill="#fff" d="M.5 0h75v36H.5z"></path>
      </clipPath>
    </defs>
  </symbol>
  <symbol fill="" xmlns="http://www.w3.org/2000/svg" viewBox="0 0 10 4" id="sep">
    <path d="M7.327 3.575c.13-.277.256-.52.377-.728.13-.208.256-.381.377-.52H.502v-.546h7.579a5.067 5.067 0 0 1-.377-.533 10.532 10.532 0 0 1-.377-.715h.455c.546.633 1.118 1.1 1.716 1.404v.234c-.598.295-1.17.763-1.716 1.404h-.455Z" fill=""></path>
  </symbol>
</svg>