<?xml version="1.0" standalone="no"?>
<!DOCTYPE svg PUBLIC "-//W3C//DTD SVG 20010904//EN"
 "http://www.w3.org/TR/2001/REC-SVG-20010904/DTD/svg10.dtd">
<svg version="1.0" xmlns="http://www.w3.org/2000/svg"
 width="405.000000pt" height="405.000000pt" viewBox="0 0 405.000000 405.000000"
 preserveAspectRatio="xMidYMid meet">
<metadata>
Created by potrace 1.14, written by Peter Selinger 2001-2017
</metadata>
<g transform="translate(0.000000,405.000000) scale(0.100000,-0.100000)"
fill="#000000" stroke="none">
<path d="M1914 3592 c10 -16 -12 -54 -26 -46 -7 4 -8 3 -4 -4 6 -11 -5 -16
-26 -13 -8 1 -5 -20 6 -39 5 -8 -3 -4 -17 9 -15 13 -24 28 -20 34 4 6 1 7 -6
3 -10 -6 -9 -12 2 -24 26 -31 29 -42 11 -35 -10 4 -15 2 -11 -4 3 -5 1 -10 -6
-11 -34 -3 -52 -10 -52 -20 0 -10 -7 -14 -17 -11 -24 6 -58 6 -58 -1 0 -5 -8
-7 -17 -4 -15 5 -15 4 -3 -4 9 -7 18 -8 26 -1 13 11 31 -7 20 -18 -3 -4 -6 -1
-6 6 0 7 -5 9 -10 6 -6 -4 -8 -10 -5 -15 10 -16 -30 -31 -45 -17 -10 10 -10 8
-2 -9 12 -22 7 -34 -12 -34 -7 0 -7 3 0 8 9 5 8 10 -2 19 -11 11 -13 7 -10
-21 1 -21 -2 -34 -8 -33 -6 1 -10 -6 -8 -15 1 -9 -3 -20 -9 -24 -8 -4 -9 -3
-5 4 4 7 2 20 -4 29 -11 17 -11 16 -5 -1 4 -13 -3 -28 -21 -47 -14 -15 -27
-31 -27 -36 -1 -4 -6 -7 -10 -5 -5 1 -6 -2 -3 -7 3 -5 -3 -11 -14 -14 -15 -4
-18 -11 -14 -33 4 -22 3 -25 -9 -16 -11 9 -14 8 -14 -3 0 -8 4 -12 9 -9 4 3 8
0 8 -7 0 -9 3 -9 14 0 10 8 16 9 21 1 4 -6 1 -9 -7 -8 -7 2 -12 -3 -10 -10 2
-9 -2 -11 -10 -6 -19 12 -37 13 -43 4 -3 -5 4 -7 15 -5 18 4 25 -6 21 -29 -1
-4 4 -15 11 -24 10 -12 10 -14 1 -8 -7 4 -13 2 -13 -3 0 -6 -5 -11 -11 -11 -8
0 -8 4 0 14 9 10 8 15 -3 19 -8 3 -13 -1 -12 -11 0 -10 -5 -16 -13 -14 -12 3
-12 1 -1 -14 8 -9 23 -20 35 -25 20 -9 20 -10 -1 -6 -25 5 -51 -27 -32 -39 7
-5 8 -3 3 6 -6 9 -4 11 5 5 8 -5 11 -4 7 2 -3 5 0 10 8 10 19 0 19 -13 1 -20
-8 -3 -13 -17 -11 -36 1 -18 -2 -29 -9 -28 -6 1 -10 -4 -8 -11 2 -10 -2 -10
-18 -2 -25 13 -26 2 -2 -16 16 -12 16 -13 -1 -10 -10 1 -23 9 -29 17 -8 12 -9
12 -5 -1 2 -8 -3 -21 -12 -28 -14 -11 -14 -11 2 -6 10 4 17 3 16 -2 -1 -5 0
-11 1 -14 5 -12 9 -64 4 -52 -3 6 -10 9 -16 6 -5 -4 -5 4 2 16 7 12 7 20 2 16
-6 -3 -12 0 -15 6 -2 7 -4 0 -4 -15 0 -16 7 -33 19 -41 16 -12 17 -14 3 -19
-8 -4 -15 -11 -15 -17 0 -6 6 -8 13 -4 9 6 9 5 0 -7 -6 -8 -10 -29 -8 -47 2
-22 -2 -35 -11 -39 -8 -3 -14 -9 -14 -15 0 -5 6 -6 13 -2 9 6 9 5 0 -7 -6 -8
-12 -18 -13 -24 -1 -5 -7 -9 -15 -9 -8 1 -16 -4 -19 -12 -3 -7 0 -11 7 -8 9 3
13 -7 14 -32 0 -29 -2 -33 -9 -21 -5 10 -7 21 -4 25 3 5 -1 9 -9 9 -17 0 -20
-13 -5 -22 6 -4 8 -10 5 -15 -3 -5 1 -12 9 -17 12 -7 12 -10 0 -21 -14 -13
-19 -5 -15 21 2 11 -17 9 -24 -3 -3 -5 -2 -10 3 -10 5 0 12 -9 15 -21 5 -20 5
-20 -15 -2 -12 10 -18 13 -15 7 8 -13 -16 -37 -26 -27 -4 3 -7 1 -7 -5 0 -6 9
-10 19 -9 11 0 18 4 15 8 -2 4 0 10 6 14 5 3 10 -1 10 -9 0 -18 -34 -39 -45
-28 -5 4 -5 1 -1 -6 4 -7 12 -10 17 -7 5 4 16 2 25 -3 15 -8 15 -10 -1 -16
-15 -5 -15 -9 -4 -23 8 -9 9 -14 3 -10 -7 4 -17 0 -24 -8 -6 -7 -17 -13 -23
-11 -7 1 -9 1 -4 -1 4 -3 7 -9 7 -14 0 -6 -6 -7 -12 -3 -9 5 -9 2 1 -9 7 -9
16 -17 19 -17 3 0 2 3 -1 7 -9 8 12 33 27 33 6 0 3 -5 -7 -11 -9 -6 -15 -14
-12 -19 3 -5 1 -11 -5 -15 -6 -4 -7 -11 -4 -17 4 -7 2 -8 -5 -4 -6 4 -8 12 -5
18 4 7 2 8 -5 4 -6 -4 -9 -12 -6 -17 11 -17 14 -50 4 -44 -5 4 -7 10 -4 15 3
4 -3 14 -12 21 -15 12 -16 12 -8 -1 12 -20 17 -53 7 -46 -4 2 -8 -4 -9 -14 -1
-11 3 -22 8 -26 6 -3 9 2 7 11 -2 10 3 20 10 22 6 3 12 0 12 -5 0 -15 -39 -59
-40 -44 0 6 -4 12 -9 12 -5 0 -8 -8 -6 -17 3 -19 7 -19 40 -7 19 8 19 7 2 -10
-9 -10 -14 -23 -10 -29 3 -7 3 -9 -2 -5 -4 4 -14 3 -22 -3 -7 -6 -13 -8 -13
-4 0 4 7 13 15 19 13 9 10 11 -12 12 -16 1 -23 -1 -16 -3 7 -2 9 -11 6 -19 -4
-12 -8 -12 -21 -2 -13 11 -14 11 -7 -2 15 -25 17 -52 3 -44 -8 5 -7 0 2 -11
14 -17 13 -18 -2 -12 -10 3 -20 1 -24 -5 -4 -7 -3 -8 4 -4 7 4 12 2 12 -5 0
-8 4 -8 15 1 8 7 12 16 9 21 -3 5 -1 9 5 9 5 0 8 8 6 18 -2 12 4 17 23 19 25
1 25 0 7 -10 -19 -11 -23 -19 -30 -57 -1 -8 -8 -14 -15 -12 -7 2 -9 -5 -5 -18
4 -12 2 -20 -5 -20 -6 0 -9 4 -5 9 6 10 -11 24 -33 27 -10 2 -10 -2 2 -15 9
-10 13 -21 9 -26 -5 -4 -2 -5 5 -1 7 4 12 1 12 -8 0 -9 6 -16 13 -16 13 -1
-23 -24 -38 -25 -5 0 -10 -17 -10 -37 -1 -20 1 -37 4 -36 3 0 13 0 21 -1 12
-1 12 -4 -2 -12 -10 -5 -18 -15 -18 -20 0 -6 5 -7 12 -3 7 4 8 3 4 -4 -4 -6
-13 -9 -20 -6 -18 7 -30 -12 -15 -22 8 -5 9 -3 4 6 -5 8 -4 11 3 6 6 -4 8 -14
5 -23 -4 -11 -2 -14 5 -9 12 7 8 -32 -4 -43 -4 -3 -5 1 -1 10 3 11 -4 26 -21
40 -21 19 -23 19 -9 3 20 -24 22 -39 5 -27 -19 11 -39 13 -32 2 3 -5 9 -7 14
-4 4 3 15 -6 24 -20 16 -24 10 -35 -10 -15 -6 6 -15 5 -24 -1 -13 -9 -12 -10
3 -5 12 4 17 0 17 -15 0 -13 4 -18 12 -13 7 5 8 3 2 -7 -5 -8 -9 -17 -10 -21
-1 -5 -3 -11 -4 -15 -1 -5 -3 -14 -4 -22 0 -8 -10 -15 -20 -17 -10 -1 -22 -8
-27 -15 -10 -16 0 -41 14 -32 6 4 7 1 2 -6 -6 -10 -12 -8 -28 7 -18 18 -19 23
-7 39 13 17 13 17 -5 1 -18 -16 -18 -19 -2 -36 22 -24 22 -38 0 -21 -16 13
-17 12 -4 -4 8 -10 20 -16 27 -13 8 3 11 0 7 -9 -4 -11 -10 -12 -25 -4 -11 6
-22 8 -26 5 -3 -3 0 -6 7 -6 7 0 10 -4 6 -9 -3 -5 0 -13 6 -17 8 -5 9 -3 4 6
-5 8 -4 11 3 6 6 -3 9 -15 7 -26 -2 -11 0 -20 6 -20 5 0 9 -5 9 -11 0 -8 -5
-8 -15 1 -8 7 -12 17 -8 23 3 6 1 7 -6 3 -6 -4 -9 -12 -6 -17 4 -5 8 -18 10
-29 4 -19 -4 -24 -35 -21 -11 1 -11 -1 3 -9 14 -9 15 -15 6 -31 -7 -13 -17
-18 -27 -15 -12 4 -12 2 3 -9 25 -19 25 -21 1 -38 -12 -9 -16 -19 -11 -27 5
-9 1 -11 -16 -6 -13 3 -18 3 -11 0 6 -3 10 -9 8 -13 -3 -4 4 -7 14 -7 10 0 16
4 14 8 -3 4 2 5 11 1 9 -3 12 -9 7 -12 -5 -3 -8 -14 -6 -24 1 -10 -2 -14 -9
-10 -6 4 -8 0 -4 -10 6 -17 -15 -41 -27 -29 -4 4 -12 -1 -17 -11 -6 -10 -15
-14 -22 -10 -9 5 -9 3 -1 -8 6 -8 10 -24 8 -36 -2 -12 1 -25 7 -28 6 -5 7 -11
0 -18 -5 -7 -11 -16 -13 -22 -1 -5 -6 -9 -10 -8 -4 2 -5 -4 -1 -13 5 -12 8
-12 20 6 18 26 30 25 43 -3 11 -21 11 -22 -5 -2 -13 17 -17 18 -25 5 -5 -8 -6
-18 -4 -22 3 -4 -1 -8 -8 -8 -8 0 -6 -5 5 -11 12 -7 15 -15 8 -27 -10 -20 -4
-42 11 -42 7 0 7 5 -1 13 -6 8 -8 16 -6 19 9 9 14 49 6 44 -4 -3 -8 1 -8 9 0
11 4 12 13 4 12 -10 12 -38 -1 -58 -3 -5 5 -17 17 -25 12 -9 17 -17 10 -17 -6
-1 -17 -2 -24 -3 -12 -1 -25 -26 -13 -26 3 0 15 5 25 10 13 7 21 7 25 0 4 -6
3 -10 -2 -9 -20 3 -25 -2 -13 -16 7 -8 17 -12 23 -8 6 3 7 1 3 -5 -13 -21 -15
-52 -4 -52 6 0 6 -6 -2 -15 -11 -13 -10 -14 6 -8 17 6 18 5 4 -12 -9 -11 -10
-16 -2 -11 7 4 12 1 12 -9 0 -9 -4 -14 -9 -10 -5 3 -12 1 -15 -4 -7 -11 13 -9
32 3 7 4 16 5 19 2 4 -3 1 -6 -5 -6 -7 0 -12 -5 -12 -11 0 -5 5 -7 12 -3 7 4
8 3 4 -5 -4 -6 -11 -9 -16 -6 -5 3 -12 0 -16 -6 -5 -8 -3 -9 6 -4 10 6 12 4 7
-8 -3 -9 -2 -19 4 -23 6 -4 6 -11 -2 -20 -10 -12 -10 -14 1 -12 7 2 15 -3 18
-11 2 -8 0 -11 -6 -7 -6 3 -13 2 -16 -3 -9 -14 19 -7 40 9 15 12 14 8 -5 -25
-12 -22 -16 -32 -8 -23 13 17 15 17 30 0 12 -13 14 -22 7 -30 -7 -9 -7 -9 2
-2 6 5 13 19 15 31 2 16 -1 20 -12 15 -11 -4 -14 -2 -9 6 5 7 3 8 -6 3 -9 -5
-11 -4 -6 3 14 23 46 -6 42 -38 -3 -27 -1 -28 17 -19 14 8 16 13 8 19 -10 5
-9 9 2 13 15 6 17 -8 5 -28 -3 -5 -6 -23 -6 -39 0 -17 4 -23 8 -16 5 8 11 3
18 -16 6 -16 11 -22 11 -13 1 9 9 23 18 30 11 10 14 10 9 2 -12 -21 -16 -54
-5 -48 5 4 7 10 4 15 -3 5 -1 11 4 14 6 4 8 -7 6 -24 -4 -33 5 -39 25 -15 10
12 10 15 0 15 -8 0 -11 3 -7 6 3 3 11 3 17 -1 8 -5 8 -11 -1 -21 -14 -17 2
-19 21 -1 8 6 7 3 -2 -8 -11 -13 -14 -26 -9 -34 6 -9 11 -10 15 -2 4 6 1 11
-6 11 -9 0 -9 3 2 10 18 12 40 14 25 2 -12 -8 -16 -44 -5 -37 10 6 24 -24 21
-45 -1 -12 0 -13 7 -1 8 11 10 11 14 0 3 -9 6 -8 11 5 4 10 3 15 -3 11 -5 -3
-17 6 -26 20 -14 21 -15 28 -4 38 9 8 11 9 6 0 -8 -14 3 -43 17 -43 6 0 19 -7
29 -17 13 -11 18 -12 18 -3 0 9 3 10 13 1 8 -6 16 -8 19 -5 3 2 8 -2 11 -10 4
-9 1 -18 -5 -22 -7 -4 -8 -3 -4 4 4 7 1 13 -6 14 -7 0 -17 2 -23 2 -5 1 -17 6
-25 10 -8 5 -12 6 -8 1 4 -4 3 -14 -3 -21 -7 -8 -7 -14 1 -19 6 -4 9 -1 8 5
-2 7 8 14 22 16 24 4 24 3 6 -11 -18 -13 -16 -14 17 -10 28 4 42 0 57 -15 11
-11 20 -16 20 -10 0 6 -9 19 -20 30 -11 11 -20 26 -19 33 0 6 5 2 11 -10 12
-25 33 -30 42 -10 3 6 3 2 1 -10 -3 -12 -1 -24 5 -28 6 -3 8 -10 5 -15 -3 -5
-1 -12 5 -15 6 -4 9 -3 8 2 -2 4 2 8 7 8 5 0 9 -3 8 -7 -2 -4 6 -5 17 -3 11 2
20 -1 20 -6 0 -6 7 -4 15 5 19 19 20 32 1 17 -10 -8 -16 -9 -21 -1 -3 6 -11 7
-17 4 -6 -4 -8 -3 -5 3 7 11 52 11 62 1 4 -3 -1 -19 -10 -35 -11 -17 -11 -21
-2 -10 16 19 32 24 21 6 -4 -7 1 -7 16 1 14 7 20 17 16 28 -5 15 -4 15 8 0 13
-17 32 -26 23 -10 -3 4 6 8 19 8 13 1 24 -2 24 -8 0 -5 -4 -6 -10 -3 -5 3 -10
-2 -10 -12 0 -10 -4 -14 -8 -8 -8 12 -44 17 -37 5 13 -20 48 -18 72 6 29 29
28 29 30 2 2 -16 0 -19 -6 -9 -6 9 -11 10 -15 2 -7 -11 6 -15 33 -11 13 2 13
-1 0 -17 -12 -16 -12 -17 2 -6 8 7 25 11 36 9 11 -3 20 1 20 9 0 8 -9 12 -23
9 -13 -2 -24 2 -27 11 -5 11 -1 12 17 5 12 -4 28 -5 35 0 7 4 22 5 32 3 15 -4
18 -2 13 13 -6 18 -6 18 8 0 10 -13 17 -15 22 -8 4 6 14 8 22 5 14 -5 15 -3 4
18 -7 13 -8 20 -2 14 6 -5 18 -23 26 -40 10 -18 16 -23 16 -13 0 11 6 16 20
13 11 -2 22 1 26 6 3 5 0 8 -7 7 -7 -2 -14 7 -15 19 -1 12 3 20 7 17 5 -3 9 1
9 8 0 9 3 9 10 -2 5 -8 10 -11 10 -7 0 4 9 3 20 -3 11 -6 17 -16 14 -22 -4 -7
-3 -8 5 -4 6 4 9 11 6 16 -3 5 -1 11 5 15 5 3 10 1 10 -6 0 -7 6 -4 14 7 11
15 12 22 3 34 -11 13 -10 13 8 0 11 -8 24 -19 28 -25 4 -6 7 -1 5 10 -2 16 2
20 26 18 l29 -2 -22 16 c-17 11 -26 12 -34 4 -6 -6 -16 -11 -21 -11 -6 0 0 7
12 16 12 8 26 13 31 9 5 -3 13 -1 16 5 4 6 14 10 23 8 10 -1 17 2 17 7 0 6 -5
9 -11 7 -7 -1 -15 2 -18 7 -3 5 2 8 11 7 10 0 18 4 18 11 0 6 4 15 9 20 5 4 7
4 3 -2 -3 -6 1 -21 9 -35 14 -24 14 -24 9 15 l-6 40 14 -30 14 -30 7 24 c7 19
10 21 18 10 8 -11 8 -10 4 4 -3 10 -6 21 -6 23 0 3 -5 2 -12 -2 -7 -4 -8 -3
-4 4 4 6 13 9 21 5 20 -7 19 7 -2 24 -16 13 -16 13 3 4 12 -6 25 -7 29 -3 4 4
3 -3 -4 -15 -14 -27 -14 -33 0 -33 5 0 8 4 5 8 -2 4 -1 14 4 22 7 11 3 20 -13
33 -12 10 -16 16 -9 12 15 -8 43 25 35 39 -4 5 -1 6 6 2 6 -4 14 0 17 8 3 9
10 13 15 10 5 -3 9 0 9 6 0 6 4 8 10 5 5 -3 20 1 32 9 12 9 17 16 11 16 -7 0
-15 -5 -18 -10 -4 -7 -12 -7 -24 0 -10 5 -22 6 -26 2 -5 -4 -5 -1 -1 6 5 9 12
9 27 2 20 -11 27 -4 33 37 4 23 18 24 22 0 1 -9 -2 -15 -7 -11 -5 3 -9 0 -9
-5 0 -6 7 -11 16 -11 9 0 14 6 11 13 -2 6 -1 24 4 38 4 15 3 32 -2 38 -5 6 -6
9 -3 6 4 -2 19 4 33 14 14 10 32 16 39 14 7 -3 10 1 6 11 -3 9 -11 13 -18 9
-6 -4 -5 1 2 10 8 9 10 22 6 28 -5 8 -3 9 6 4 10 -6 12 -3 7 11 -7 19 -7 19 8
0 8 -10 16 -24 18 -30 2 -6 8 -7 13 -3 5 4 4 11 -1 15 -6 4 -16 17 -22 29 -12
21 -11 22 10 14 12 -5 21 -14 19 -21 -1 -6 2 -9 8 -5 7 4 5 14 -4 27 -11 15
-12 26 -5 40 5 10 7 18 3 18 -3 0 0 7 7 16 15 19 21 47 8 38 -5 -3 -6 -10 -3
-16 5 -7 2 -8 -6 -3 -8 5 -11 4 -6 -3 4 -6 -4 -16 -16 -22 -21 -10 -21 -10 -6
3 10 8 15 16 13 19 -3 3 1 11 10 18 14 12 14 15 -2 34 -13 14 -13 17 -2 9 12
-10 18 -10 28 0 9 9 14 9 21 -3 8 -13 11 -13 22 -1 11 11 11 13 -1 6 -9 -5
-12 -3 -9 6 3 8 10 13 16 12 6 -1 7 10 2 32 -9 41 10 66 34 46 11 -9 16 -9 22
1 4 7 3 10 -1 5 -5 -4 -16 0 -26 9 -14 13 -16 21 -8 35 5 11 7 19 3 19 -3 0
-1 6 5 13 6 8 9 17 6 20 -3 4 -2 5 1 3 11 -8 32 18 27 34 -3 10 0 9 7 -3 6 -9
16 -15 21 -11 6 4 6 11 -2 20 -8 10 -9 18 -2 25 8 8 13 7 18 -2 6 -8 4 -10 -6
-4 -11 7 -11 5 1 -11 22 -29 24 -30 17 -12 -3 10 -2 20 3 23 6 4 10 12 10 18
0 7 -4 6 -10 -3 -8 -12 -10 -12 -10 -1 0 8 8 20 18 28 9 8 12 12 7 9 -6 -2
-17 5 -24 17 -11 18 -11 20 0 10 15 -15 43 -17 34 -3 -5 9 7 14 27 12 3 -1 12
6 20 15 11 14 11 16 -2 8 -8 -5 -19 -10 -25 -11 -5 -1 -17 -5 -26 -8 -10 -5
-16 -2 -16 8 0 8 4 13 8 10 5 -2 17 1 28 8 20 12 20 13 -2 26 -19 11 -19 12
-2 8 11 -3 31 3 45 14 18 15 20 18 6 13 -14 -5 -17 -3 -11 7 5 9 4 11 -4 6 -6
-4 -8 -12 -5 -18 5 -7 2 -8 -6 -3 -9 6 -11 4 -5 -6 6 -11 5 -12 -5 -2 -12 11
-11 15 6 28 10 8 25 13 31 10 7 -2 17 4 22 13 10 16 10 16 11 0 0 -9 4 -19 8
-22 4 -3 3 15 -2 39 -6 24 -14 41 -20 38 -5 -3 -6 -1 -2 5 4 6 13 9 21 6 8 -4
12 -10 9 -15 -3 -5 2 -6 11 -3 14 6 14 8 -1 19 -10 7 -19 20 -20 29 -2 14 0
15 13 5 12 -10 16 -10 24 2 5 8 8 19 8 24 0 6 -3 4 -6 -2 -2 -7 -10 -13 -15
-13 -6 0 -8 3 -5 7 4 3 2 11 -3 18 -7 8 -3 11 13 11 13 -1 21 4 19 12 -1 6 3
12 9 12 5 0 8 4 5 9 -4 5 0 12 6 14 10 4 10 6 1 6 -15 1 -35 -34 -25 -44 4 -5
2 -5 -5 -1 -7 4 -9 14 -6 24 6 15 5 16 -13 2 -18 -14 -18 -14 -5 2 7 10 17 16
21 13 4 -3 11 2 14 11 9 24 7 29 -6 16 -7 -7 -17 -12 -23 -12 -5 0 -4 4 3 8
15 10 24 50 12 57 -5 3 -12 0 -16 -6 -4 -7 -3 -9 4 -6 6 5 8 -1 4 -15 -5 -21
-6 -21 -12 -2 -4 10 -5 25 -2 32 2 7 1 12 -4 11 -20 -3 -34 2 -34 12 0 6 6 7
12 2 14 -8 73 -15 65 -7 -2 3 -13 6 -25 9 -11 2 -35 11 -54 21 -30 15 -32 15
-19 1 10 -13 11 -20 2 -30 -6 -8 -9 -17 -6 -20 3 -4 2 -5 -2 -2 -11 8 -13 36
-2 29 5 -3 9 -1 9 5 0 22 -20 20 -36 -4 -9 -13 -20 -23 -24 -20 -5 3 -11 -1
-13 -7 -4 -10 -6 -10 -6 0 -1 6 -6 12 -12 12 -6 0 -9 -7 -6 -15 4 -8 1 -17 -5
-21 -7 -4 -8 -3 -4 4 4 7 2 12 -4 12 -6 0 -8 4 -5 10 4 6 -2 7 -16 1 -16 -5
-24 -18 -27 -40 -2 -18 0 -31 5 -28 5 3 9 -3 9 -14 0 -25 -3 -24 -18 6 -13 25
-13 25 -26 4 -8 -12 -10 -19 -5 -16 4 3 14 -2 22 -11 13 -13 11 -14 -15 -9
-16 3 -23 4 -16 1 18 -8 15 -27 -4 -20 -14 5 -15 4 -5 -8 9 -11 9 -15 -1 -19
-9 -4 -10 -6 -1 -6 7 -1 17 8 23 19 6 11 16 20 23 20 8 0 8 -3 -2 -9 -7 -5
-10 -14 -7 -20 5 -7 2 -10 -6 -9 -8 2 -12 -5 -11 -17 1 -11 0 -14 -3 -7 -9 19
-27 14 -48 -15 -11 -14 -14 -23 -8 -19 7 4 12 2 12 -4 0 -6 4 -8 10 -5 5 3 7
0 4 -9 -3 -8 -12 -17 -20 -20 -8 -3 -11 -13 -8 -23 5 -15 4 -15 -5 -3 -7 11
-6 19 6 32 9 10 13 18 9 18 -4 0 -16 -10 -26 -22 -14 -18 -16 -26 -7 -37 9
-10 7 -16 -6 -26 -21 -15 -22 -29 -1 -21 8 3 12 2 9 -4 -3 -6 -15 -10 -26 -10
-10 0 -19 -5 -19 -11 0 -6 7 -9 15 -6 8 4 17 1 21 -5 4 -6 3 -8 -4 -4 -5 3
-12 0 -15 -6 -3 -10 -7 -10 -18 -1 -12 10 -15 8 -16 -8 -1 -10 3 -19 8 -19 6
0 7 6 3 13 -4 6 -3 9 1 4 5 -4 9 -16 10 -27 2 -19 1 -19 -24 -4 -14 9 -23 13
-19 9 4 -4 0 -14 -10 -22 -9 -8 -11 -11 -3 -7 9 4 12 2 9 -7 -3 -8 -12 -12
-19 -11 -8 2 -11 0 -7 -4 4 -4 3 -13 -3 -20 -7 -9 -7 -19 0 -33 15 -28 14 -38
-2 -16 -10 13 -16 15 -21 6 -5 -7 -1 -18 10 -25 11 -9 13 -15 6 -20 -6 -4 -9
-14 -6 -24 5 -14 4 -14 -4 -2 -6 8 -9 17 -6 21 2 4 -4 13 -13 20 -15 12 -16
12 -8 -1 5 -8 10 -26 11 -38 0 -13 7 -28 15 -33 10 -6 10 -9 2 -9 -20 0 -28 4
-25 13 1 4 -6 3 -17 -2 -12 -7 -17 -18 -14 -29 3 -12 -3 -22 -19 -29 -23 -11
-23 -11 4 -9 14 0 24 4 22 8 -2 4 0 10 6 13 8 5 7 12 -2 22 -12 15 -11 15 9 2
16 -9 19 -16 10 -21 -7 -4 -12 -13 -12 -20 0 -13 -4 -14 -45 -17 -11 0 -20 -6
-20 -12 0 -5 4 -7 10 -4 6 4 7 -1 3 -11 -5 -13 -3 -15 7 -9 9 5 11 4 6 -4 -5
-8 -12 -9 -20 -2 -8 7 -16 4 -26 -12 -12 -20 -12 -21 3 -9 12 10 17 10 23 1 4
-8 3 -9 -4 -5 -11 6 -17 -12 -13 -37 0 -4 -6 -7 -15 -7 -8 0 -12 -5 -9 -10 4
-6 11 -8 16 -5 5 4 9 1 9 -5 0 -7 -6 -10 -14 -7 -8 3 -22 -3 -32 -14 -14 -15
-15 -22 -5 -32 10 -9 11 -8 5 8 -7 17 -6 18 8 5 9 -8 12 -17 7 -18 -5 -2 -7
-8 -4 -13 4 -5 -2 -6 -11 -2 -14 5 -16 3 -10 -12 4 -11 4 -16 0 -13 -4 4 -15
3 -25 -3 -14 -7 -19 -6 -19 2 0 7 -2 10 -5 7 -3 -3 -3 -13 1 -22 5 -13 9 -14
20 -5 8 7 17 9 21 5 3 -3 1 -6 -6 -6 -7 0 -10 -4 -7 -9 3 -5 -8 -7 -24 -6 -16
1 -27 -1 -24 -6 2 -4 -5 -18 -17 -30 -14 -14 -17 -20 -7 -16 11 4 15 0 13 -11
-1 -9 3 -20 9 -24 6 -4 -6 -6 -27 -5 -37 3 -64 -12 -49 -28 4 -5 -2 -5 -12 -1
-17 6 -17 5 -5 -11 9 -11 10 -14 2 -9 -12 7 -14 3 -17 -31 -1 -7 -6 -12 -11
-10 -6 1 -9 5 -8 9 1 3 -4 9 -12 12 -10 3 -12 0 -8 -12 6 -15 5 -16 -13 -2
-15 11 -16 11 -6 0 19 -22 14 -35 -6 -17 -15 14 -19 15 -19 2 0 -8 3 -13 6
-11 3 2 12 -2 19 -10 7 -8 9 -14 5 -15 -4 0 -17 -2 -28 -4 -10 -2 -25 1 -31 6
-8 7 -14 6 -19 -1 -3 -5 -3 -10 2 -10 4 0 0 -5 -10 -11 -9 -6 -15 -15 -11 -20
3 -5 0 -8 -8 -7 -7 2 -12 -4 -10 -12 3 -11 -2 -10 -17 4 -23 21 -29 35 -7 17
10 -8 16 -8 25 3 9 11 8 15 -4 20 -9 3 -13 2 -10 -4 3 -5 -4 -8 -15 -7 -11 1
-20 6 -20 11 0 5 -6 1 -14 -9 -14 -20 -56 -31 -56 -15 0 6 -5 10 -11 10 -15 0
-2 -18 23 -31 11 -6 18 -7 15 -2 -4 5 0 10 8 10 8 0 13 -3 10 -5 -3 -3 0 -11
6 -18 7 -8 7 -14 -1 -19 -6 -4 -10 -3 -9 2 3 20 -2 27 -11 13 -6 -10 -10 -11
-10 -2 0 14 -36 17 -44 3 -4 -5 0 -12 6 -14 10 -4 10 -6 0 -6 -8 -1 -10 -6 -6
-13 4 -8 3 -10 -2 -5 -5 5 -9 14 -9 20 0 5 -6 12 -14 15 -8 3 -11 0 -7 -6 3
-6 1 -14 -5 -18 -7 -4 -9 -3 -5 4 4 7 -6 10 -32 8 -27 -2 -39 1 -39 10 0 10 4
11 13 3 8 -7 14 -6 19 2 6 8 10 7 16 -2 7 -11 9 -11 9 -1 0 7 4 10 10 7 6 -3
7 1 3 10 -5 13 -7 14 -14 3 -7 -10 -9 -10 -9 2 -1 12 -3 11 -11 -3 -8 -14 -14
-16 -25 -6 -8 6 -14 17 -14 25 0 7 -4 15 -9 18 -5 4 -7 -3 -4 -14 3 -12 2 -20
-3 -18 -5 2 -9 -1 -9 -7 0 -5 3 -9 8 -7 4 1 7 -2 7 -7 0 -11 -31 -24 -38 -16
-3 3 0 5 8 5 10 0 10 3 0 15 -10 12 -10 18 1 32 12 15 12 16 -1 8 -19 -12 -33
-13 -41 -2 -3 5 -9 2 -12 -6 -4 -11 -1 -15 12 -12 10 2 18 -3 18 -10 0 -8 -4
-12 -9 -9 -4 3 -8 0 -8 -5 0 -6 -5 -11 -11 -11 -5 0 -8 4 -4 9 6 10 -29 34
-37 26 -3 -3 -5 2 -5 10 0 8 5 11 10 8 6 -4 7 -1 2 7 -6 10 -11 9 -22 -5 -7
-11 -13 -13 -13 -7 0 7 -5 12 -11 12 -5 0 -7 -5 -3 -12 4 -7 3 -8 -5 -4 -6 4
-8 12 -5 18 4 6 -1 8 -15 3 -12 -3 -21 -2 -21 3 0 11 40 9 59 -2 7 -5 10 -2 9
6 -2 7 4 12 12 10 8 -2 11 0 7 4 -10 10 -38 14 -32 5 2 -4 -10 -8 -28 -8 -18
0 -41 -3 -52 -7 -11 -4 -5 2 13 14 38 26 38 26 13 26 -11 0 -18 -3 -15 -7 5
-9 -18 -17 -33 -12 -7 3 -13 9 -13 15 0 6 8 5 18 -3 15 -13 16 -12 4 3 -8 9
-11 23 -7 30 4 7 0 5 -8 -4 -15 -19 -37 -24 -37 -9 0 5 -7 17 -16 25 -8 9 -14
22 -11 29 2 6 11 -3 21 -21 9 -17 19 -32 22 -32 2 0 0 9 -6 20 -6 11 -7 20 -3
20 4 0 -2 6 -12 14 -11 8 -29 13 -42 11 -14 -1 -23 3 -23 11 0 7 6 11 14 8 8
-3 16 -1 20 4 6 10 -24 9 -41 -1 -11 -7 -28 9 -28 27 0 5 -9 12 -20 17 -14 5
-15 8 -5 8 9 1 21 -4 28 -11 8 -8 12 -8 12 -1 0 6 -7 14 -16 17 -10 4 -13 13
-9 25 5 17 -17 37 -37 33 -4 -1 -4 6 -1 15 4 11 3 14 -6 9 -6 -4 -11 -4 -10 1
1 4 0 11 -1 16 -1 4 -3 12 -4 17 0 6 -5 9 -11 8 -5 -2 -8 -7 -7 -13 2 -5 0 -6
-4 -2 -10 10 -15 39 -5 33 3 -2 17 14 29 37 13 23 17 34 9 25 -8 -10 -18 -14
-22 -10 -5 4 -5 2 -2 -4 4 -7 -1 -18 -11 -25 -15 -13 -16 -12 -3 4 7 9 10 17
6 17 -5 0 0 10 11 22 10 12 14 18 7 15 -12 -8 -13 47 0 59 4 4 7 12 7 18 0 5
-6 2 -13 -9 -18 -23 -40 -11 -31 17 5 16 3 19 -7 12 -12 -6 -12 -5 -1 8 9 11
9 18 2 21 -6 3 -5 4 2 2 7 -1 12 -7 11 -13 -1 -5 4 -13 12 -16 13 -5 13 -2 0
24 -17 33 -19 50 -6 50 5 0 8 -7 7 -16 0 -9 5 -18 12 -20 7 -1 8 0 2 3 -5 2
-10 9 -10 14 0 6 5 7 12 3 7 -5 8 -3 3 6 -6 10 -3 12 11 7 18 -7 18 -7 0 8
-11 8 -17 15 -13 15 5 0 2 6 -5 14 -7 8 -16 12 -19 10 -3 -2 -6 3 -6 11 0 11
5 11 23 -2 13 -8 29 -13 36 -10 8 3 6 6 -5 6 -11 1 -15 6 -11 13 4 6 3 8 -4 4
-6 -3 -14 -1 -18 5 -5 8 -3 9 6 4 8 -5 11 -3 8 6 -3 8 -11 13 -17 11 -7 -1 -9
2 -6 8 5 8 12 7 23 -3 22 -19 47 -12 29 8 -7 7 -15 11 -19 9 -4 -2 -9 -1 -12
4 -2 4 4 9 15 9 10 1 19 -4 19 -10 0 -7 5 -4 11 6 6 9 14 15 20 12 16 -10 10
7 -8 20 -15 11 -14 14 6 34 22 22 22 23 3 17 -22 -7 -39 8 -22 19 8 5 5 16 -6
33 l-17 27 22 -19 c12 -11 20 -25 17 -31 -2 -7 1 -12 8 -12 7 0 13 6 13 14 0
7 -4 13 -9 13 -4 0 -8 5 -8 11 0 5 4 8 9 5 5 -4 8 1 7 11 -2 9 -11 20 -21 23
-18 6 -18 7 1 12 19 5 32 48 14 48 -5 0 -7 -9 -5 -20 2 -12 0 -18 -6 -14 -6 3
-8 8 -5 12 3 3 -2 11 -12 19 -16 12 -16 13 2 6 14 -5 17 -3 11 7 -5 8 -4 11 3
6 8 -4 10 3 7 24 -2 17 0 28 6 24 5 -3 7 -9 5 -13 -3 -3 4 -7 14 -7 17 0 17 2
1 22 -9 12 -20 19 -26 16 -5 -3 -2 4 8 15 9 11 14 23 10 28 -5 4 -3 5 4 1 6
-3 14 -2 18 4 3 5 1 10 -6 10 -7 0 -9 3 -6 6 4 4 13 1 21 -5 9 -7 17 -8 20 -2
3 5 1 11 -6 13 -9 3 -8 10 5 23 15 14 16 20 5 26 -7 5 -8 9 -3 9 6 0 16 -5 23
-12 6 -6 15 -8 19 -4 4 4 1 11 -6 15 -11 7 -11 10 0 14 10 4 9 6 -3 6 -10 1
-18 6 -18 11 0 7 6 7 19 1 10 -6 21 -7 25 -4 4 4 -4 13 -16 20 -13 7 -17 12
-9 13 8 0 11 6 7 16 -3 8 -2 12 4 9 6 -3 10 -1 10 4 0 6 -6 11 -12 11 -7 1 -1
8 15 16 29 16 37 27 12 18 -11 -5 -13 -2 -9 10 3 9 1 16 -6 16 -6 0 -8 -5 -4
-12 5 -7 3 -8 -7 -3 -12 8 -12 6 0 -8 11 -15 11 -17 -1 -17 -17 0 -20 32 -4
43 8 5 6 10 -4 18 -12 8 -9 9 10 3 22 -6 23 -5 12 9 -8 9 -19 14 -27 11 -7 -3
-16 -1 -20 5 -4 7 0 8 11 4 13 -5 15 -3 9 7 -9 15 7 7 40 -19 11 -9 7 -2 -8
16 -21 23 -25 33 -16 39 9 5 8 9 -7 15 -17 7 -17 8 -1 8 10 1 15 6 12 11 -3 6
-2 10 4 10 5 0 8 9 6 20 -2 11 1 20 7 20 5 0 7 -7 4 -16 -3 -8 -2 -12 4 -9 6
3 10 1 10 -4 0 -6 -4 -11 -9 -11 -13 0 -18 -22 -12 -47 l6 -22 11 23 c10 21 9
24 -5 19 -11 -5 -9 1 7 19 12 13 22 31 22 39 0 12 -2 12 -10 -1 -5 -8 -10 -10
-10 -5 0 6 6 17 13 24 10 11 7 12 -13 7 -14 -3 -19 -3 -12 0 6 3 10 10 7 15
-4 5 1 6 11 2 14 -5 15 -3 5 18 -11 23 -11 23 3 5 9 -11 19 -16 23 -13 3 4 3
7 -2 7 -4 0 0 9 10 20 17 19 10 28 -11 13 -5 -5 -1 0 9 10 14 12 15 17 6 17
-12 1 17 24 31 25 13 1 44 24 33 25 -6 0 -15 -5 -19 -11 -4 -8 -9 -7 -15 2 -8
12 -10 12 -18 0 -5 -8 -11 -9 -15 -3 -7 11 21 25 34 17 5 -3 12 0 16 6 4 8 3
9 -4 5 -7 -4 -12 -1 -12 8 0 10 6 13 18 10 14 -5 14 -4 3 4 -8 6 -15 19 -16
29 -4 31 -10 48 -20 55 -6 5 -5 8 3 8 7 0 10 5 6 12 -4 6 -3 8 4 4 6 -3 13 -2
17 3 3 6 12 8 19 5 18 -7 30 12 15 22 -8 4 -9 3 -5 -4 8 -13 -6 -17 -17 -5 -8
7 11 33 24 33 4 0 11 -9 14 -21 4 -11 9 -18 12 -16 2 3 -5 22 -17 44 -12 21
-19 30 -16 20 4 -12 2 -16 -6 -11 -7 5 -8 3 -3 -6 6 -9 4 -11 -5 -5 -8 5 -11
4 -6 -3 3 -6 2 -13 -4 -17 -6 -4 -8 -10 -5 -15 3 -5 -4 -8 -15 -7 -20 1 -20 2
2 19 13 10 19 18 14 18 -4 0 -1 11 7 24 11 15 12 27 6 33 -7 7 -5 12 5 16 8 3
18 1 22 -5 4 -7 3 -8 -4 -4 -7 4 -12 3 -12 -2 0 -14 11 -21 26 -15 11 4 11 10
-2 35 -11 20 -12 28 -3 22 9 -5 10 -2 6 10 -4 10 -3 15 4 11 5 -4 7 -16 3 -28
-5 -18 -4 -20 7 -10 15 15 21 43 8 43 -5 0 -5 10 -1 23 5 12 8 38 7 58 -1 27
3 36 14 34 8 -1 17 -8 19 -16 3 -12 2 -12 -6 0 -6 8 -12 9 -16 3 -3 -6 0 -12
6 -15 18 -5 48 3 48 14 0 5 -3 8 -7 7 -5 -2 -19 5 -33 15 -13 9 -19 17 -12 17
10 0 9 4 -2 16 -9 8 -13 21 -9 27 8 12 13 33 15 54 1 7 5 10 10 7 4 -3 3 -14
-2 -25 -6 -10 -8 -19 -4 -19 3 0 1 -6 -5 -14 -9 -10 -8 -15 3 -19 8 -3 19 0
26 7 8 10 7 15 -5 19 -14 6 -11 39 3 34 4 -1 7 3 7 8 0 5 -3 9 -7 8 -5 -2 -8
4 -8 13 0 8 4 13 9 9 5 -3 12 -1 16 4 3 6 11 9 18 7 7 -1 9 -1 4 1 -4 3 -4 10
0 16 3 7 -3 3 -15 -7 -14 -12 -22 -14 -22 -7 0 7 -5 9 -12 5 -7 -4 -8 -3 -4 5
4 6 12 9 17 6 5 -4 9 1 9 10 0 10 -5 13 -12 9 -7 -4 -8 -3 -4 5 6 9 11 9 22 0
18 -15 27 -6 30 29 1 15 5 36 9 46 5 12 5 17 -2 13 -5 -3 -10 0 -10 8 0 8 3
14 6 13 3 0 8 1 11 2 21 8 38 6 36 -3 -2 -7 -1 -8 2 -4 2 4 11 0 19 -10 8 -10
12 -13 9 -7 -3 7 3 11 16 10 12 0 22 5 24 12 1 7 0 8 -3 2 -3 -7 -12 -5 -26 7
-11 10 -17 12 -13 6 8 -15 -10 -18 -19 -4 -3 5 5 17 17 25 12 9 17 16 11 16
-7 0 -15 -5 -18 -10 -4 -6 -11 -7 -17 -4 -7 4 -8 2 -4 -4 4 -7 3 -12 -2 -12
-5 0 -8 17 -7 38 1 20 -3 44 -9 52 -10 13 -9 13 7 1 16 -13 25 -2 10 13 -4 3
-8 13 -9 22 -2 11 1 12 10 5 14 -12 16 -58 3 -78 -10 -16 5 -24 23 -12 8 5 10
9 4 9 -12 0 -12 49 1 69 5 9 4 12 -1 8 -6 -3 -16 4 -24 16 -12 20 -12 21 4 8
14 -12 16 -11 14 10 -2 13 -7 27 -13 31 -6 5 -5 8 2 8 7 0 11 6 9 13 -1 6 -1
9 1 4 3 -4 9 -5 13 -2 5 3 12 0 16 -6 4 -7 3 -9 -4 -5 -6 3 -14 1 -18 -6 -4
-7 -4 -10 1 -6 4 4 15 2 24 -4 9 -7 13 -8 9 -4 -4 5 -3 15 3 23 6 7 8 13 5 13
-4 0 0 7 9 17 14 13 18 14 25 2 5 -7 12 -10 16 -7 3 4 -9 16 -27 27 -36 22
-28 28 15 11 20 -7 24 -6 20 5 -3 8 -9 13 -12 12 -4 -1 -8 3 -10 8 -1 6 3 11
8 11 23 3 24 5 10 14 -10 7 -11 10 -2 11 27 3 31 4 38 12 4 4 15 0 24 -8 14
-13 17 -13 17 0 0 8 -5 11 -10 8 -6 -3 -7 -1 -3 5 4 6 20 10 36 8 21 -2 27 0
23 11 -4 10 -9 11 -18 3 -9 -8 -15 -8 -20 0 -3 5 -4 11 -1 11 23 5 33 3 49 -9
9 -9 20 -12 24 -9 3 4 1 7 -6 7 -7 0 -10 4 -6 9 3 6 15 8 27 6 25 -5 53 25 35
37 -7 4 -7 8 -2 8 6 0 17 -5 25 -10 13 -9 13 -11 0 -20 -11 -7 -11 -10 -2 -10
7 0 15 7 18 15 4 8 11 15 16 15 6 0 8 -7 4 -15 -3 -8 -1 -15 4 -15 6 0 10 7
10 16 0 8 4 13 10 9 5 -3 7 -13 4 -23 -4 -10 -3 -13 3 -6 12 15 73 11 83 -6 6
-10 10 -11 10 -3 0 7 7 10 18 7 14 -5 14 -4 2 4 -8 6 -18 8 -24 5 -5 -3 -6 -1
-2 5 4 6 14 8 24 5 15 -6 16 -5 2 13 -14 18 -14 18 3 5 9 -8 15 -16 12 -19 -3
-3 1 -12 8 -20 6 -9 7 -13 2 -10 -6 4 -17 2 -25 -4 -12 -8 -12 -9 3 -4 9 3 17
1 17 -5 0 -6 8 -2 18 10 13 16 20 18 32 10 13 -9 13 -10 -2 -6 -9 4 -19 -1
-22 -10 -9 -23 1 -28 20 -12 15 12 16 11 10 -11 -6 -19 -5 -21 3 -10 8 11 11
11 12 3 3 -28 4 -32 10 -37 8 -9 5 37 -4 51 -4 6 -2 15 5 19 7 4 10 4 6 -1
-10 -10 11 -37 22 -30 5 3 12 1 15 -5 4 -6 1 -9 -7 -8 -7 2 -13 -4 -13 -12 0
-8 -4 -21 -9 -28 -7 -11 -4 -11 15 0 13 7 27 17 30 21 6 8 21 -16 24 -38 0 -5
7 -8 15 -7 8 2 12 0 8 -4 -4 -4 0 -13 10 -21 15 -13 15 -13 -5 -3 -17 8 -23 8
-23 0 0 -6 -4 -9 -8 -6 -4 2 -8 -4 -8 -15 0 -18 2 -18 12 -5 12 17 29 22 19 6
-3 -5 3 -10 14 -10 25 0 27 -13 4 -36 -16 -16 -16 -16 2 -11 11 4 27 2 35 -4
13 -9 12 -10 -2 -5 -10 3 -20 0 -24 -7 -4 -7 -4 -9 1 -5 4 4 17 2 29 -4 11 -7
24 -11 27 -10 4 1 5 -8 2 -19 -4 -12 0 -25 8 -30 10 -6 10 -9 2 -9 -10 0 -12
-36 -2 -47 1 -2 2 -6 3 -10 1 -5 5 -14 9 -21 6 -8 4 -11 -4 -10 -18 4 -24 -33
-7 -44 9 -5 4 -7 -14 -4 -21 4 -26 1 -21 -11 5 -12 3 -14 -8 -8 -11 6 -12 5
-1 -6 15 -16 16 -33 0 -23 -7 4 -8 3 -4 -5 10 -15 29 -3 22 15 -3 7 -1 16 5
19 5 4 8 -6 7 -24 -1 -16 -6 -27 -10 -25 -4 3 -7 -5 -5 -18 1 -14 -3 -22 -10
-21 -14 3 -13 -23 2 -47 8 -13 7 -13 -8 -1 -9 7 -15 17 -12 20 2 4 -2 8 -10 8
-11 0 -8 -9 10 -33 15 -20 21 -35 15 -39 -6 -4 -9 -3 -8 2 2 4 -2 9 -7 10 -6
2 -10 -3 -10 -10 0 -6 -4 -18 -9 -25 -4 -7 -2 -20 6 -30 12 -16 11 -16 -7 -2
-11 8 -21 15 -23 16 -1 1 0 9 4 18 3 9 11 13 17 9 6 -3 7 -1 3 6 -4 6 -11 9
-16 6 -4 -3 -11 1 -14 7 -4 9 -5 8 -5 -2 3 -36 -2 -61 -9 -56 -4 2 -8 -6 -8
-20 0 -28 0 -28 29 -13 20 9 21 9 4 -4 -13 -11 -14 -16 -6 -19 9 -3 7 -7 -5
-11 -10 -4 -15 -3 -11 3 3 6 1 10 -4 10 -14 0 -14 -6 1 -29 9 -15 8 -23 -9
-44 -11 -15 -23 -23 -27 -19 -4 3 -4 -1 0 -11 5 -13 2 -16 -12 -11 -11 3 -15
2 -9 -3 14 -11 12 -59 -2 -56 -13 3 -10 -46 6 -75 10 -18 9 -21 -3 -16 -9 3
-14 11 -13 17 1 6 -7 12 -18 14 -20 3 -20 3 0 -6 19 -8 19 -8 -4 -20 -12 -7
-20 -15 -17 -18 3 -3 -2 -12 -12 -20 -12 -10 -14 -16 -4 -19 18 -8 15 -27 -3
-20 -13 4 -13 2 -5 -14 12 -23 13 -33 2 -26 -5 3 -8 -8 -7 -24 1 -17 -2 -30
-7 -30 -5 0 -2 -7 6 -16 20 -20 21 -19 -9 -49 -14 -14 -22 -25 -17 -25 4 0 13
5 19 11 8 8 13 7 18 -2 5 -7 4 -10 -3 -5 -6 3 -14 -4 -18 -16 -8 -27 -7 -33 5
-33 5 0 12 -3 16 -7 9 -9 -16 -5 -32 5 -7 4 -11 13 -9 20 1 7 1 9 -1 4 -3 -4
-10 -4 -16 -1 -8 5 -8 2 1 -7 17 -18 15 -34 -2 -20 -10 8 -16 9 -21 1 -4 -6
-3 -10 2 -9 4 1 11 0 16 -1 4 -1 12 -3 19 -4 6 0 12 -9 14 -18 2 -16 0 -16
-22 -2 -13 9 -29 14 -36 11 -8 -3 -5 -6 6 -6 19 -1 19 -2 -3 -22 -17 -16 -20
-24 -10 -35 9 -11 9 -17 -1 -29 -15 -18 1 -20 18 -3 8 8 12 8 12 1 0 -14 -29
-27 -55 -24 -13 1 -8 -4 13 -15 27 -14 30 -19 19 -26 -11 -5 -14 -19 -12 -41
3 -21 1 -27 -4 -17 -5 8 -8 29 -6 47 2 24 -1 30 -12 26 -11 -4 -12 -8 -3 -13
9 -5 9 -9 1 -14 -8 -5 -8 -13 -1 -26 6 -12 6 -21 1 -25 -13 -7 -10 -43 4 -41
5 2 6 1 2 -2 -4 -2 -3 -10 4 -18 6 -8 10 -14 8 -15 -2 0 -13 -2 -23 -4 -10 -2
-25 -10 -33 -18 -12 -12 -12 -14 1 -14 8 0 13 3 11 7 -2 4 2 7 10 7 11 0 9 -7
-6 -29 -18 -24 -19 -31 -7 -45 8 -10 -1 -7 -22 7 -19 13 -29 17 -22 8 10 -12
10 -17 -1 -27 -8 -6 -16 -8 -20 -5 -3 3 -4 -2 -3 -12 2 -9 10 -18 19 -20 17
-2 31 22 20 38 -3 6 -1 8 5 4 24 -14 8 -52 -20 -47 -5 0 -8 -4 -8 -10 0 -8 -4
-8 -13 0 -10 8 -14 7 -14 -3 0 -9 9 -13 26 -11 14 2 20 2 14 -1 -7 -3 -13 -10
-13 -15 0 -6 4 -7 10 -4 6 4 7 -1 3 -11 -5 -15 -7 -15 -15 0 -5 9 -20 15 -33
14 -13 -1 -21 -6 -19 -10 3 -4 11 -5 19 -1 8 3 15 1 16 -3 0 -5 2 -17 4 -26 2
-9 -5 -24 -15 -33 -10 -9 -16 -24 -13 -33 4 -14 3 -15 -5 -2 -8 10 -8 18 0 27
7 9 7 13 -1 13 -6 0 -11 -5 -11 -11 0 -5 -5 -7 -11 -3 -8 5 -8 1 0 -14 8 -15
7 -23 -5 -33 -9 -7 -18 -9 -22 -3 -4 5 -16 11 -27 12 -18 4 -17 2 4 -15 l23
-19 -23 -1 c-19 -2 -21 0 -9 7 11 7 7 9 -15 7 -17 -2 -36 -7 -43 -11 -7 -4
-16 -5 -21 -1 -5 3 -12 1 -16 -5 -3 -5 -11 -10 -17 -10 -5 0 0 9 13 19 15 12
26 15 30 9 4 -7 9 -6 13 1 4 6 11 9 16 6 5 -3 11 -2 14 3 6 11 -45 9 -63 -2
-8 -5 -17 -3 -23 5 -8 12 -9 11 -5 -1 2 -9 -7 -23 -22 -34 l-26 -20 19 22 c12
13 14 22 7 22 -7 0 -9 5 -5 12 4 7 3 8 -5 4 -6 -4 -9 -11 -6 -16 3 -5 1 -11
-4 -14 -11 -7 -24 22 -16 35 4 5 -1 6 -10 3 -11 -5 -13 -10 -5 -19 8 -10 7
-15 -2 -21 -7 -4 -10 -4 -6 1 4 4 0 14 -8 23 -14 13 -17 13 -25 1 -12 -19 -11
-6 1 26 5 14 6 24 2 21 -13 -8 -39 28 -37 52 1 17 -1 19 -12 10 -11 -9 -12
-13 -1 -19 7 -5 9 -9 4 -9 -5 0 -1 -10 10 -22 10 -12 13 -18 5 -13 -8 4 -17 2
-23 -6 -8 -11 -9 -10 -4 4 7 21 -3 49 -14 42 -5 -3 -2 9 7 25 8 17 12 34 9 37
-3 4 -6 1 -6 -5 0 -7 -5 -12 -10 -12 -13 0 -9 32 5 43 6 5 2 6 -8 3 -10 -3
-28 1 -40 9 -12 8 -16 15 -9 15 14 0 12 21 -3 33 -6 5 -3 7 8 3 9 -3 17 -1 17
4 0 6 -4 10 -10 10 -5 0 -10 5 -10 12 0 8 6 6 17 -4 13 -14 14 -20 4 -32 -8
-10 -9 -16 -1 -21 6 -3 7 -12 4 -18 -4 -7 -1 -6 7 2 11 10 11 15 1 18 -6 3
-10 9 -6 14 3 5 11 6 17 2 16 -10 41 -13 32 -5 -4 4 -12 7 -18 7 -7 0 -11 8
-11 18 1 9 -3 14 -9 10 -7 -4 -8 0 -4 11 5 13 1 19 -13 23 -11 3 -20 9 -20 14
0 5 14 2 31 -7 24 -12 34 -13 43 -4 8 8 6 9 -8 4 -15 -6 -17 -4 -11 6 5 9 4
11 -3 6 -7 -4 -12 -3 -12 2 0 17 13 22 27 10 11 -9 13 -8 11 3 -2 8 2 13 8 12
15 -3 11 44 -5 59 -11 11 -12 10 -6 -2 6 -12 5 -13 -5 -3 -16 15 -12 21 18 26
12 2 25 7 29 12 5 4 2 5 -4 1 -8 -4 -13 -1 -13 8 0 9 6 16 13 16 6 0 -3 9 -20
20 -18 11 -33 23 -33 26 0 4 7 1 15 -6 8 -6 18 -9 24 -6 5 3 12 0 15 -6 3 -7
3 -1 1 14 -2 14 -9 36 -15 48 -7 14 -8 20 -1 16 5 -4 15 4 22 16 11 20 11 22
-3 10 -13 -10 -18 -10 -24 -1 -4 7 -3 9 4 5 10 -6 25 22 21 40 -3 20 2 34 12
34 8 0 8 -4 1 -13 -8 -10 -6 -16 9 -25 11 -7 19 -8 19 -2 0 5 -4 10 -10 10 -5
0 -10 5 -10 11 0 6 7 9 15 5 12 -4 13 -2 3 13 -6 11 -20 18 -30 16 -10 -2 -16
0 -13 6 4 5 10 7 15 4 5 -3 11 -1 15 4 3 5 15 8 26 6 17 -3 19 -2 9 10 -9 11
-17 12 -31 5 -14 -8 -17 -7 -13 3 3 8 17 14 31 13 15 -1 28 5 31 12 3 9 -4 11
-23 8 -21 -4 -24 -2 -16 8 6 7 8 16 4 19 -3 4 2 9 11 13 9 3 16 10 16 16 0 5
-4 6 -10 3 -6 -3 -7 1 -4 9 9 24 22 19 19 -6 -4 -38 -5 -39 -17 -32 -7 4 -10
3 -5 -1 4 -5 18 -10 30 -11 12 -2 16 0 10 2 -7 3 -13 10 -13 15 0 6 4 8 8 5 5
-3 9 1 9 9 0 8 -4 15 -9 15 -5 0 -7 4 -3 9 3 5 1 12 -4 16 -6 3 -7 13 -4 22 5
12 3 14 -8 8 -11 -7 -12 -6 -2 6 10 12 10 18 0 29 -10 12 -9 12 5 1 10 -7 15
-18 12 -23 -3 -5 3 -4 15 3 12 8 16 16 9 20 -7 4 -5 10 6 16 14 8 13 10 -4 20
-16 11 -18 10 -15 -7 2 -11 0 -20 -6 -20 -5 0 -7 10 -5 23 3 12 5 26 5 30 1 4
13 19 29 33 23 22 24 25 7 22 -11 -1 -23 -7 -27 -13 -5 -6 -8 -6 -8 1 0 6 9
19 19 28 11 10 17 25 14 34 -4 15 -3 15 6 2 8 -11 11 -12 11 -2 0 7 5 10 10 7
6 -4 7 -12 3 -18 -4 -7 0 -6 10 2 20 16 22 22 6 18 -6 -1 -14 4 -16 11 -3 7 1
10 10 6 8 -3 18 -1 22 5 4 7 0 8 -10 5 -9 -4 -15 -3 -13 2 2 5 -2 10 -7 12 -6
1 -10 -3 -10 -10 0 -6 -6 -13 -12 -15 -15 -5 -17 13 -3 22 6 4 8 10 5 15 -3 4
3 14 12 21 9 8 14 9 10 3 -7 -12 21 -29 31 -19 3 3 0 5 -6 5 -7 0 -12 4 -12
10 0 11 22 9 31 -3 3 -5 9 -2 12 7 4 9 1 15 -6 13 -17 -3 -9 34 11 50 14 11
13 12 -9 2 -19 -8 -26 -18 -25 -34 2 -18 -1 -21 -17 -17 -17 4 -18 6 -3 14 14
8 15 12 4 26 -7 9 -8 14 -4 10 10 -9 36 9 36 24 0 6 -8 4 -17 -3 -16 -13 -17
-12 -4 4 7 9 10 17 6 17 -4 0 -2 7 5 15 7 9 18 14 25 11 15 -5 13 30 -3 46 -8
8 -7 18 3 38 8 15 12 37 10 49 -2 12 0 19 6 16 5 -4 12 1 15 9 3 9 11 16 16
16 7 0 6 -5 -1 -14 -16 -19 10 -41 27 -24 7 7 12 16 12 22 0 5 -6 2 -13 -9 -9
-11 -16 -14 -21 -7 -3 6 -2 14 4 17 17 10 -8 35 -28 28 -14 -4 -14 -3 -3 5 10
7 22 7 35 1 19 -9 20 -9 4 4 -21 16 -25 63 -5 51 8 -5 8 -2 -2 9 -7 9 -19 17
-25 17 -6 0 -4 -5 4 -11 13 -9 13 -10 0 -6 -8 2 -14 10 -12 16 1 6 -3 11 -9
11 -6 0 -9 -8 -7 -18 3 -10 0 -19 -6 -19 -6 0 -11 17 -12 38 0 21 3 36 7 34
12 -8 28 20 20 34 -6 9 -11 10 -15 2 -4 -6 -2 -11 4 -11 6 0 9 -4 5 -9 -3 -5
-21 -7 -41 -5 -22 3 -33 1 -29 -6 3 -6 -1 -7 -10 -4 -10 4 -15 2 -13 -7 2 -9
-5 -13 -19 -11 -12 2 -25 -2 -29 -9 -4 -8 -11 -4 -19 12 -13 23 -13 23 -10 -6
1 -17 6 -38 10 -48 4 -10 5 -21 1 -24 -3 -4 -6 2 -6 12 0 10 -3 15 -7 12 -3
-4 -12 -2 -20 4 -15 13 -18 -1 -3 -19 6 -6 7 -10 3 -7 -3 3 -13 -4 -20 -15
-11 -16 -12 -24 -3 -35 12 -15 -3 -31 -20 -20 -5 3 -10 1 -10 -4 0 -10 14 -15
33 -12 5 1 6 -3 2 -8 -3 -6 -13 -7 -22 -4 -9 4 -14 2 -10 -3 3 -6 1 -16 -5
-24 -8 -13 -9 -12 -5 2 6 16 -20 35 -31 23 -3 -3 -1 -5 5 -5 15 0 23 -36 10
-49 -7 -7 -5 -12 6 -17 25 -9 20 -26 -5 -19 -16 4 -19 3 -9 -3 11 -8 11 -10 0
-14 -9 -3 -8 -6 5 -11 10 -4 15 -3 11 3 -3 6 -2 10 3 10 6 0 13 -7 16 -16 3
-8 2 -13 -3 -9 -5 3 -8 -13 -6 -35 2 -28 0 -38 -8 -33 -21 13 -55 10 -50 -4 4
-10 9 -10 18 -3 9 7 16 5 26 -7 13 -16 12 -17 -3 -4 -11 8 -18 9 -18 3 0 -6 4
-13 10 -17 13 -8 1 -35 -16 -35 -8 0 -14 5 -14 11 0 5 4 8 9 4 5 -3 12 -1 15
4 8 12 -37 22 -48 11 -7 -7 -6 -10 2 -10 7 0 12 -4 12 -10 0 -5 -8 -7 -17 -3
-10 3 -15 3 -12 -1 4 -4 17 -9 29 -11 26 -5 40 -15 21 -15 -7 0 -9 -4 -6 -10
3 -5 2 -10 -3 -10 -6 0 -12 7 -16 15 -3 8 -10 15 -16 15 -6 0 -4 -13 6 -31 8
-17 11 -28 5 -25 -15 10 -14 -7 2 -23 10 -10 9 -11 -5 -6 -10 4 -18 13 -18 21
0 8 -5 14 -11 14 -5 0 -8 -4 -4 -9 3 -6 0 -13 -7 -18 -17 -10 -17 -36 0 -46 8
-5 10 -17 6 -29 -4 -15 -3 -18 6 -13 9 6 9 3 1 -13 -6 -12 -17 -24 -24 -28 -9
-5 -9 -4 1 7 13 14 17 33 4 25 -4 -2 -8 4 -8 14 0 10 4 16 8 14 4 -3 8 0 8 6
0 7 -6 10 -12 7 -7 -2 -12 -10 -10 -17 1 -7 -3 -19 -10 -28 -7 -9 -8 -13 -2
-9 7 4 11 -7 11 -33 0 -22 -3 -37 -8 -35 -4 3 -6 -3 -4 -12 2 -10 4 -18 5 -18
1 0 3 -8 5 -17 4 -20 -32 -61 -46 -52 -17 10 -40 -17 -33 -40 6 -19 5 -19 -10
-7 -9 8 -19 11 -23 7 -3 -3 0 -6 8 -6 10 -1 9 -4 -4 -11 -17 -10 -15 -29 4
-29 6 0 8 4 4 9 -3 5 -1 12 4 15 5 3 11 -4 14 -15 4 -16 11 -19 29 -14 16 4
19 3 9 -3 -8 -6 -10 -15 -5 -23 6 -10 3 -10 -11 1 -17 14 -18 13 -12 -3 6 -15
4 -16 -14 -6 -26 14 -80 23 -60 10 11 -7 11 -9 0 -14 -11 -4 -11 -6 -1 -6 7
-1 11 -5 7 -10 -3 -5 7 -19 22 -31 27 -21 37 -45 26 -63 -3 -4 -14 0 -26 10
-20 18 -20 18 -2 -9 9 -16 22 -25 29 -21 6 3 7 2 3 -3 -5 -5 -12 -9 -15 -9
-22 -1 -32 -17 -21 -37 10 -18 9 -20 -5 -15 -11 4 -15 3 -11 -4 4 -6 14 -8 22
-5 8 3 11 1 8 -5 -4 -5 -2 -16 4 -23 8 -10 6 -18 -10 -32 -20 -18 -21 -18 -35
1 -16 22 -19 12 -3 -16 5 -11 13 -17 17 -15 5 3 9 -5 9 -16 2 -20 1 -20 -12
-2 -10 14 -13 15 -12 4 2 -8 6 -20 10 -26 9 -15 -2 -24 -21 -16 -14 5 -15 3
-5 -9 10 -12 9 -20 -2 -36 -12 -17 -12 -23 -1 -32 7 -6 17 -7 21 -3 5 4 5 1 1
-6 -6 -11 -13 -8 -32 9 -29 27 -32 11 -5 -20 11 -13 17 -30 14 -38 -4 -10 -2
-14 5 -9 6 3 14 2 17 -4 4 -6 3 -9 -2 -8 -4 2 -9 -1 -10 -7 -1 -5 6 -9 15 -7
11 2 13 0 6 -5 -11 -8 -34 -47 -34 -57 0 -3 5 -6 11 -6 5 0 8 4 4 9 -3 6 4 15
16 21 l21 12 -18 -31 c-16 -28 -17 -33 -4 -41 9 -6 18 -5 23 3 6 8 7 6 3 -5
-3 -10 1 -18 12 -21 16 -4 16 -5 0 -6 -9 0 -20 4 -23 9 -3 6 -11 10 -16 10 -6
0 -3 -7 6 -16 13 -14 14 -19 3 -25 -9 -6 -10 -9 -1 -9 7 0 10 -7 7 -17 -5 -15
-4 -15 4 -3 6 8 9 17 6 21 -2 4 1 11 7 15 8 4 9 3 5 -4 -4 -7 -2 -12 3 -12 6
0 11 -5 11 -11 0 -5 -5 -7 -10 -4 -5 3 -10 1 -10 -4 0 -10 14 -15 33 -12 5 1
6 -3 2 -9 -3 -5 -1 -10 6 -10 7 0 4 -7 -7 -16 -17 -14 -17 -15 -1 -10 11 3 16
2 12 -4 -3 -6 -1 -10 4 -10 6 0 10 -3 9 -7 -2 -5 0 -9 4 -11 12 -5 68 -60 68
-66 0 -3 -8 -3 -17 1 -10 3 -15 3 -12 -1 4 -4 15 -8 26 -10 13 -3 19 2 19 14
0 10 -3 17 -6 15 -3 -2 -14 3 -25 11 -10 8 -14 14 -9 14 6 0 14 -3 18 -7 4 -5
12 -8 17 -8 5 0 9 -4 10 -10 1 -5 6 -19 12 -30 6 -11 10 -23 9 -27 -1 -4 5 -5
13 -2 8 4 15 1 15 -6 0 -7 6 -10 14 -7 7 3 24 -2 37 -10 12 -9 19 -12 16 -6
-4 6 0 14 9 17 21 8 76 -22 69 -37 -4 -7 1 -3 9 7 9 11 16 16 16 12 0 -5 8 -2
17 5 14 12 16 12 11 -2 -4 -9 -1 -16 7 -16 7 0 12 8 10 18 -2 10 1 22 7 25 7
4 8 2 4 -4 -7 -12 5 -16 32 -13 11 2 17 -12 13 -32 -1 -5 3 -6 9 -2 6 3 8 11
5 16 -9 14 8 11 33 -7 12 -8 22 -11 22 -6 0 6 -7 13 -16 16 -8 3 -12 10 -9 16
4 6 11 8 16 5 5 -4 9 -2 9 4 0 5 8 8 18 6 9 -1 23 2 30 8 6 5 12 6 12 2 0 -4
7 -2 15 5 8 7 12 17 8 23 -3 5 -1 7 5 3 14 -8 44 22 36 36 -4 7 -2 8 4 4 6 -4
8 -14 5 -23 -4 -11 -3 -14 5 -9 8 5 10 2 5 -9 -5 -13 -7 -14 -14 -3 -7 10 -9
10 -9 0 0 -6 -5 -11 -12 -10 -7 2 -12 -4 -13 -12 0 -9 -9 -15 -23 -14 -18 1
-20 -1 -11 -12 8 -10 15 -11 24 -4 8 6 15 6 23 -2 9 -9 11 -6 7 10 -2 12 0 24
6 27 5 4 9 0 9 -7 1 -7 6 -3 13 10 14 25 29 20 20 -6 -4 -10 -3 -14 1 -11 10
9 16 50 7 44 -12 -7 -22 21 -15 40 5 12 9 13 21 3 12 -10 14 -9 11 7 -2 12 3
20 12 20 9 0 14 8 12 20 -2 16 -1 17 7 5 5 -8 8 -17 5 -21 -6 -10 24 -5 33 6
4 4 3 5 -3 2 -7 -4 -14 1 -16 11 -4 13 1 18 16 20 17 1 18 -1 6 -8 -10 -6 -11
-10 -3 -10 7 0 17 9 23 20 6 11 15 18 20 15 5 -3 11 -1 14 4 7 10 -20 9 -30
-2 -4 -4 -12 -7 -18 -7 -6 0 -3 5 8 11 15 9 16 13 5 21 -10 7 -8 8 8 3 20 -6
21 -4 13 24 -5 17 -5 30 -2 30 19 -3 23 3 12 17 -8 8 -9 14 -4 13 5 -1 12 0
17 1 4 1 13 3 20 4 15 1 17 26 4 44 -6 7 -7 16 -3 19 4 4 12 1 17 -7 9 -13 10
-12 6 2 -3 9 -1 18 6 21 6 2 3 6 -7 10 -11 5 -15 3 -10 -5 4 -7 3 -8 -5 -4 -8
6 -9 12 -2 20 6 7 8 16 4 19 -3 4 -1 7 5 7 19 0 14 20 -5 21 -15 0 -15 2 2 8
11 4 32 6 46 5 17 -2 32 3 40 14 11 14 11 15 -1 5 -16 -15 -34 -17 -25 -4 3 5
1 12 -4 15 -5 4 -13 1 -17 -5 -5 -8 -3 -9 6 -4 8 5 11 4 6 -3 -4 -6 -13 -9
-22 -5 -12 5 -12 7 3 19 17 13 17 13 -2 14 -18 1 -19 2 -2 9 10 4 19 11 19 16
0 6 4 16 10 23 7 8 7 12 -1 12 -6 0 -11 5 -11 11 0 8 4 9 13 0 8 -6 18 -7 23
-3 4 4 2 -1 -5 -10 -16 -22 -5 -24 15 -3 9 8 11 15 7 15 -5 0 -18 7 -29 15
-16 13 -16 14 -1 9 19 -7 24 11 5 20 -7 3 -1 4 14 1 15 -3 30 -1 33 5 4 6 -1
7 -11 3 -13 -5 -15 -3 -9 7 6 10 4 12 -8 7 -12 -4 -14 -2 -10 10 4 10 2 14 -4
10 -5 -3 -10 0 -10 8 0 8 4 12 9 9 8 -5 11 7 9 36 0 10 1 11 5 3 9 -21 26 -15
19 6 -5 16 -1 19 20 17 14 -2 28 2 32 8 3 6 3 8 -2 4 -5 -5 -15 1 -22 12 -8
11 -18 18 -22 16 -4 -3 -8 1 -8 9 0 8 3 14 6 13 19 -2 31 3 26 11 -3 5 0 13 6
17 8 4 7 9 -2 16 -11 8 -11 9 1 5 8 -2 14 -9 13 -15 -1 -5 4 -13 13 -16 12 -5
12 -2 4 15 -11 20 -4 39 25 62 6 5 0 5 -12 2 -18 -5 -22 -3 -17 9 3 8 13 13
22 10 15 -5 14 -4 -1 6 -9 6 -23 8 -30 5 -6 -4 -3 0 7 9 16 13 17 18 5 32 -13
16 -12 16 8 4 15 -10 19 -18 13 -25 -6 -8 -5 -12 4 -12 9 0 13 8 10 23 -3 14
2 26 12 32 15 8 15 10 -1 15 -9 4 -13 12 -9 18 4 8 3 9 -5 5 -6 -4 -9 -12 -6
-17 4 -5 1 -9 -4 -9 -14 0 -14 17 0 25 6 4 8 14 5 22 -3 8 -1 11 4 8 6 -3 10
1 10 9 0 10 6 13 18 10 10 -4 13 -2 7 3 -5 4 -17 17 -25 28 -14 19 -14 19 3 6
16 -13 25 -2 10 13 -11 10 -12 37 -2 30 5 -3 7 -10 4 -15 -4 -5 1 -9 9 -9 10
0 13 -7 11 -20 -2 -11 0 -18 5 -15 10 6 8 23 -8 52 -14 25 -6 33 29 29 21 -2
25 1 23 18 -4 37 -16 66 -28 66 -6 0 -3 5 7 11 15 9 16 13 5 26 -12 15 -10 15
11 4 13 -7 21 -8 17 -3 -3 6 -3 12 1 15 5 2 1 2 -7 0 -8 -2 -11 -1 -7 3 4 4 1
14 -6 22 -10 13 -9 14 1 8 9 -6 12 -3 10 9 -2 10 4 20 12 22 13 4 13 3 0 -7
-10 -8 -11 -10 -2 -8 8 2 13 7 13 11 -1 4 -1 14 -1 23 0 11 -6 14 -22 9 -18
-5 -20 -4 -8 4 8 6 23 11 33 11 10 0 15 5 12 10 -4 6 -11 7 -17 4 -7 -5 -8 -2
-3 6 6 10 4 12 -8 7 -14 -5 -15 -3 -5 13 13 20 13 20 20 0 8 -20 33 -27 42
-11 3 5 -2 8 -10 7 -23 -2 -26 35 -6 58 16 18 16 19 0 13 -10 -3 -20 -1 -24 6
-4 7 -4 9 1 5 4 -4 14 -3 20 2 9 8 14 6 18 -4 4 -9 2 -18 -4 -21 -5 -4 -6 -11
-3 -17 4 -7 2 -8 -4 -4 -7 4 -10 -2 -9 -14 1 -20 2 -20 14 -4 7 9 10 21 7 26
-3 4 1 11 9 14 18 7 16 32 -4 45 -8 5 -9 9 -4 9 6 0 16 4 24 9 12 8 12 12 2
25 -9 11 -10 16 -2 16 6 0 11 5 11 11 0 5 -4 8 -8 5 -5 -3 -8 5 -7 16 1 12 7
24 14 26 9 3 11 -2 7 -16 -4 -11 -2 -23 5 -27 8 -6 7 -10 -2 -16 -12 -7 -12
-10 0 -21 8 -7 11 -8 8 -2 -8 14 17 37 29 26 4 -4 3 0 -4 9 -6 9 -8 20 -4 24
4 5 1 5 -5 1 -9 -5 -13 0 -13 13 0 10 6 22 13 25 6 3 0 3 -15 1 -15 -2 -31 1
-34 7 -4 6 -2 8 4 4 6 -3 13 -2 17 3 3 5 -3 15 -12 21 -17 11 -17 11 0 6 14
-4 17 -1 15 12 -2 9 -10 16 -17 14 -7 -1 -9 2 -6 8 5 8 13 6 25 -5 13 -11 20
-13 25 -5 4 6 4 14 1 17 -3 4 -6 0 -6 -7 0 -9 -5 -7 -14 5 -14 19 -11 49 4 40
5 -3 12 0 16 6 4 7 3 9 -3 6 -6 -4 -14 0 -17 9 -4 11 -2 15 8 11 10 -4 13 -1
10 8 -3 8 -12 11 -20 8 -8 -3 -14 0 -14 7 0 6 5 8 10 5 6 -3 10 1 10 10 0 9
-4 14 -9 11 -5 -4 -8 1 -7 10 1 8 9 20 17 25 11 7 11 9 0 9 -11 0 -10 5 3 25
18 27 22 49 5 25 -9 -12 -10 -11 -6 6 4 17 1 20 -15 16 -14 -3 -16 -7 -8 -12
7 -5 9 -13 5 -20 -6 -9 -4 -11 5 -5 9 6 11 4 6 -4 -8 -12 -20 -7 -22 10 -1 5
-3 11 -4 14 -4 8 -7 24 -9 40 -1 9 -7 12 -18 9 -15 -5 -16 -4 -3 5 13 10 8 15
-12 12 -5 0 -8 4 -8 9 0 15 16 12 30 -5 7 -8 18 -15 24 -14 7 0 6 2 -2 6 -6 2
-9 10 -5 16 3 7 3 9 -2 5 -4 -4 -21 2 -38 14 -25 18 -30 19 -24 5 9 -24 0 -21
-14 4 -8 15 -8 19 0 15 6 -4 11 -2 11 3 0 6 -5 11 -12 11 -6 0 -9 3 -5 6 8 8
40 -11 35 -21 -1 -4 6 -11 18 -15 15 -6 21 -4 21 6 0 10 -7 12 -20 8 -13 -4
-17 -2 -13 5 4 6 1 14 -7 17 -9 3 -14 16 -12 30 1 13 -2 27 -7 30 -4 3 -5 10
-2 16 4 7 2 8 -5 4 -6 -4 -14 0 -17 8 -5 13 -9 12 -25 -7 -17 -20 -18 -20 -12
-2 3 11 10 25 14 31 5 6 3 11 -6 11 -8 0 -12 -4 -9 -9 8 -13 -29 -6 -38 7 -4
6 -5 19 -1 30 5 17 4 18 -9 7 -13 -10 -17 -10 -22 3 -3 9 -11 13 -17 9 -8 -4
-9 -3 -5 5 6 9 11 9 21 1 11 -9 16 -6 25 12 10 20 9 21 -3 6 -13 -16 -15 -16
-36 5 -17 17 -21 18 -15 5 3 -11 1 -18 -5 -18 -6 0 -10 3 -10 8 4 21 -2 32
-13 26 -9 -5 -9 -2 1 9 7 9 9 17 3 17 -5 0 -15 -7 -22 -15 -7 -8 -18 -15 -24
-15 -6 0 -4 5 4 10 8 5 12 10 8 11 -25 5 -34 4 -41 -6 -5 -6 -6 -2 -3 9 4 10
1 25 -5 32 -6 7 -8 18 -4 25 6 8 2 8 -13 0 -29 -15 -35 -14 -30 7 5 19 -27 29
-37 11 -4 -5 -11 -6 -17 -3 -6 4 -8 2 -4 -4 3 -6 1 -14 -5 -18 -7 -4 -9 -3 -5
4 3 6 2 13 -4 17 -9 6 -14 -8 -11 -28 1 -5 -3 -6 -8 -2 -6 3 -8 11 -5 19 3 7
-2 13 -11 13 -8 0 -15 -4 -15 -9 0 -5 -4 -6 -10 -3 -5 3 -10 11 -10 16 0 6 5
7 10 4 6 -3 10 -1 10 4 0 6 5 11 11 11 5 0 8 -4 5 -9 -4 -5 2 -8 11 -6 10 2
21 4 26 4 4 1 7 5 7 10 0 12 -66 6 -84 -8 -12 -10 -19 -8 -37 10 -12 12 -20
16 -17 8 4 -9 -2 -20 -13 -27 -11 -7 -19 -9 -18 -5 3 19 -2 33 -11 33 -5 0 -7
-7 -4 -15 4 -8 1 -15 -6 -15 -6 0 -9 4 -6 9 7 11 -18 33 -27 24 -4 -3 -7 -11
-7 -17 0 -6 5 -4 10 4 5 8 10 10 10 4 0 -5 -7 -19 -15 -30 -9 -11 -13 -13 -10
-4 3 9 -1 24 -8 34 -13 17 -14 17 -28 -1 -13 -16 -13 -17 4 -4 11 9 17 10 17
2 0 -10 -7 -13 -26 -10 -4 0 -11 -5 -15 -13 -7 -10 -9 -10 -9 2 0 13 -1 13
-10 0 -8 -12 -10 -10 -8 9 2 14 -3 26 -12 28 -12 4 -12 3 -1 -5 9 -6 10 -12 3
-16 -6 -4 -8 -14 -5 -24 3 -9 3 -14 -1 -10 -4 3 -9 13 -10 22 -2 17 -21 23
-21 7 0 -11 -13 -26 -26 -27 -22 -3 -23 -6 -4 -15 18 -8 18 -8 -5 -6 -18 1
-24 -2 -22 -13 3 -12 1 -13 -9 -2 -11 10 -9 15 11 30 14 9 28 16 31 15 11 -4
7 47 -4 54 -6 3 -7 1 -3 -5z m443 -54 c-2 -7 3 -18 12 -25 13 -10 14 -14 3
-25 -11 -11 -12 -10 -6 7 4 11 4 17 -1 13 -9 -9 -36 23 -29 34 8 13 26 9 21
-4z m52 -32 c8 -10 8 -16 -2 -24 -10 -8 -13 -5 -15 14 -2 28 1 30 17 10z
m-365 -187 c-2 -4 -12 -6 -22 -4 -9 1 -22 -2 -28 -7 -12 -9 -30 20 -19 30 3 3
5 0 5 -6 0 -16 43 -9 48 8 4 10 6 10 13 -1 4 -7 6 -16 3 -20z m126 10 c0 -6
-4 -7 -10 -4 -5 3 -10 11 -10 16 0 6 5 7 10 4 6 -3 10 -11 10 -16z m40 0 c0
-14 -17 -10 -23 5 -4 10 -1 13 9 9 7 -3 14 -9 14 -14z m474 -48 c-4 -3 -9 0
-11 7 -3 6 -9 12 -14 12 -6 0 -8 -4 -5 -8 3 -5 -1 -9 -8 -9 -11 0 -12 4 -3 18
10 17 13 17 29 2 10 -9 15 -19 12 -22z m-1100 -43 c-14 -11 -23 -27 -20 -34 3
-8 2 -13 -2 -13 -4 1 -14 1 -22 0 -13 -1 -13 -3 0 -12 13 -9 12 -10 -2 -5 -10
3 -20 1 -23 -4 -3 -5 3 -11 12 -14 15 -4 15 -5 -1 -3 -20 2 -32 37 -13 37 19
0 38 16 41 32 3 25 26 47 42 41 11 -4 8 -10 -12 -25z m1101 14 c-3 -3 -11 0
-18 7 -9 10 -8 11 6 5 10 -3 15 -9 12 -12z m-879 -74 c4 4 2 -1 -5 -10 -18
-24 -30 -23 -28 1 1 14 5 17 13 11 6 -6 15 -6 20 -2z m718 -84 c3 -8 2 -12 -4
-9 -6 3 -10 10 -10 16 0 14 7 11 14 -7z m-819 -144 c3 -5 1 -10 -4 -10 -6 0
-11 5 -11 10 0 6 2 10 4 10 3 0 8 -4 11 -10z m227 -27 c-6 -2 -10 -9 -7 -14 4
-5 -1 -6 -10 -2 -13 5 -14 7 -3 14 7 5 18 8 23 8 6 0 4 -3 -3 -6z m-262 -70
c0 -5 -4 -15 -10 -23 -5 -9 -5 -19 2 -27 18 -22 2 -14 -18 9 -10 12 -13 18 -6
14 11 -6 17 5 13 27 0 4 4 7 9 7 6 0 10 -3 10 -7z m-246 -24 c-8 -14 -21 -11
-21 5 0 8 6 12 14 9 7 -3 10 -9 7 -14z m571 1 c-3 -5 -11 -10 -16 -10 -6 0 -7
5 -4 10 3 6 11 10 16 10 6 0 7 -4 4 -10z m555 -114 c0 -3 -4 -8 -10 -11 -5 -3
-10 -1 -10 4 0 6 5 11 10 11 6 0 10 -2 10 -4z m-820 -26 c0 -5 -5 -10 -11 -10
-5 0 -7 5 -4 10 3 6 8 10 11 10 2 0 4 -4 4 -10z m1015 1 c-9 -8 -36 -10 -30
-2 2 4 11 8 20 8 8 0 13 -3 10 -6z m-777 -45 c-2 -1 -12 -8 -23 -16 -18 -14
-19 -13 -8 1 7 9 10 19 6 23 -4 4 1 4 10 0 10 -3 17 -7 15 -8z m497 -66 c-3
-5 -11 -10 -16 -10 -6 0 -7 5 -4 10 3 6 11 10 16 10 6 0 7 -4 4 -10z m-20
-130 c3 -5 1 -10 -4 -10 -6 0 -11 5 -11 10 0 6 2 10 4 10 3 0 8 -4 11 -10z
m-2 -33 c7 4 4 -5 -6 -21 -15 -23 -16 -30 -5 -44 11 -15 11 -15 -2 -5 -10 8
-21 9 -30 3 -13 -9 -13 -10 0 -10 13 0 13 -1 0 -10 -10 -6 -11 -10 -2 -10 6 0
12 -5 12 -11 0 -8 -4 -8 -14 0 -16 13 -15 39 2 50 6 3 9 15 8 26 -4 23 16 54
22 36 2 -6 9 -8 15 -4z m-1120 -20 c3 -8 -1 -14 -8 -14 -7 0 -11 6 -8 14 3 7
6 13 8 13 2 0 5 -6 8 -13z m534 -13 c-3 -3 -12 -4 -19 -1 -8 3 -5 6 6 6 11 1
17 -2 13 -5z m-231 -13 c-4 -5 -1 -12 4 -14 6 -3 5 -4 -2 -3 -15 3 -23 26 -8
26 6 0 9 -4 6 -9z m1031 -66 c0 -8 -4 -12 -9 -9 -4 3 -8 -1 -9 -8 0 -10 -2
-10 -6 0 -2 6 -9 10 -14 7 -5 -4 -6 1 -3 9 3 9 11 16 16 16 6 0 4 8 -3 18 -13
16 -13 16 7 -1 11 -9 21 -24 21 -32z m-281 -37 c5 -7 3 -8 -6 -3 -10 6 -12 4
-7 -9 4 -10 3 -15 -3 -11 -7 4 -9 -3 -6 -18 3 -17 -1 -27 -11 -31 -13 -5 -13
-9 -2 -24 13 -15 12 -16 -4 -3 -13 10 -15 17 -6 27 9 11 9 18 0 28 -9 11 -8
15 4 20 9 3 14 10 11 15 -4 5 0 12 6 14 7 3 14 6 15 6 1 1 5 -4 9 -11z m-765
-21 c-6 -8 -8 -17 -4 -20 3 -4 0 -14 -8 -24 -12 -15 -12 -16 3 -10 10 3 20 2
22 -2 3 -5 -5 -7 -17 -6 -31 3 -31 3 -17 20 7 9 10 18 7 22 -7 6 10 33 20 33
3 0 0 -6 -6 -13z m-127 -32 c3 -8 1 -15 -4 -15 -6 0 -10 7 -10 15 0 8 2 15 4
15 2 0 6 -7 10 -15z m1077 -38 c-10 -9 -11 -8 -5 6 3 10 9 15 12 12 3 -3 0
-11 -7 -18z m-1087 -3 c3 -8 2 -12 -4 -9 -6 3 -10 10 -10 16 0 14 7 11 14 -7z
m140 -20 c3 -8 2 -12 -3 -9 -16 9 -25 -16 -10 -27 11 -8 11 -9 -3 -5 -24 8
-29 -3 -10 -22 10 -9 13 -12 6 -8 -15 10 -28 -8 -18 -25 4 -7 3 -8 -4 -4 -7 4
-12 3 -12 -2 0 -5 -11 -9 -24 -9 -20 0 -23 4 -22 31 1 25 6 31 25 32 24 1 63
42 55 56 -3 4 -1 8 4 8 6 0 13 -7 16 -16z m721 -22 c-2 -9 -4 -19 -5 -22 -1
-3 -1 -9 0 -15 1 -5 -2 -7 -6 -2 -12 12 -15 47 -3 47 5 0 7 5 3 12 -4 6 -3 8
4 5 5 -4 9 -15 7 -25z m240 -42 c-3 -5 -12 -10 -18 -10 -7 0 -6 4 3 10 19 12
23 12 15 0z m-1075 -115 c0 -2 -5 -7 -12 -11 -7 -5 -8 -3 -3 6 5 9 4 11 -4 6
-16 -11 -3 -26 16 -19 11 4 14 3 9 -5 -19 -32 -57 3 -47 43 1 6 41 -13 41 -20z
m1040 0 c0 -12 -19 -12 -23 0 -4 9 -1 12 9 8 7 -3 14 -7 14 -8z m-1019 -38
c-10 -9 -11 -8 -5 6 3 10 9 15 12 12 3 -3 0 -11 -7 -18z m738 -33 c-6 -8 -18
-14 -27 -14 -13 0 -12 3 3 20 20 22 43 17 24 -6z m-1111 -44 c-12 -16 -22 -30
-23 -30 0 0 -1 11 -1 24 0 14 5 22 12 19 7 -2 15 0 19 6 3 6 8 11 11 11 2 0
-5 -13 -18 -30z m1322 -9 c0 -6 -4 -12 -8 -15 -5 -3 -9 1 -9 9 0 8 4 15 9 15
4 0 8 -4 8 -9z m30 5 c0 -3 -4 -8 -10 -11 -5 -3 -10 -1 -10 4 0 6 5 11 10 11
6 0 10 -2 10 -4z m-1349 -29 c-10 -9 -11 -8 -5 6 3 10 9 15 12 12 3 -3 0 -11
-7 -18z m583 2 c-3 -5 -10 -7 -15 -3 -5 3 -7 10 -3 15 3 5 10 7 15 3 5 -3 7
-10 3 -15z m-244 -15 c0 -8 -5 -14 -11 -14 -5 0 -7 5 -4 10 3 6 1 10 -5 10 -6
0 -8 5 -5 10 8 13 25 3 25 -16z m13 -44 c3 -11 1 -18 -4 -14 -5 3 -9 12 -9 20
0 20 7 17 13 -6z m219 -2 c-2 -10 -6 -18 -7 -18 -1 0 -5 8 -7 18 -3 11 0 19 7
19 7 0 10 -8 7 -19z m-35 -3 c0 -8 -4 -12 -9 -9 -5 3 -6 10 -3 15 9 13 12 11
12 -6z m-197 -60 c-7 -9 -15 -13 -19 -10 -3 3 1 10 9 15 21 14 24 12 10 -5z
m730 -1 c0 -2 -7 -4 -15 -4 -8 0 -15 4 -15 10 0 5 7 7 15 4 8 -4 15 -8 15 -10z
m-504 -11 c-3 -20 -26 -41 -26 -24 0 11 -3 11 -15 1 -9 -7 -18 -10 -21 -7 -3
3 4 10 15 17 12 6 20 14 17 18 -2 4 4 8 14 8 9 0 17 -6 16 -13z m1011 -28 c0
-8 -6 -16 -13 -19 -8 -3 -12 3 -11 15 1 22 24 26 24 4z m-1282 -86 c-4 -5 -12
-9 -18 -8 -9 0 -8 2 1 6 6 2 9 10 6 15 -4 7 -2 8 5 4 6 -4 9 -12 6 -17z m-395
-49 c0 -5 -5 -10 -11 -10 -5 0 -7 5 -4 10 3 6 8 10 11 10 2 0 4 -4 4 -10z
m1080 1 c0 -5 -7 -12 -16 -15 -14 -5 -15 -4 -4 9 14 17 20 19 20 6z m220 -21
c0 -5 -5 -10 -11 -10 -5 0 -7 5 -4 10 3 6 8 10 11 10 2 0 4 -4 4 -10z m293
-21 c4 -15 2 -18 -7 -10 -7 6 -17 7 -22 3 -4 -4 -2 1 5 11 17 21 18 21 24 -4z
m-978 -1 c5 4 5 1 1 -6 -6 -10 -11 -10 -22 -1 -8 6 -14 14 -14 16 0 3 6 0 13
-6 8 -6 18 -7 22 -3z m680 -18 c3 -5 1 -10 -4 -10 -6 0 -11 5 -11 10 0 6 2 10
4 10 3 0 8 -4 11 -10z m11 -53 c1 -11 -3 -12 -22 -3 -17 8 -19 12 -9 14 8 2
12 9 9 15 -5 8 -3 8 6 0 8 -7 15 -19 16 -26z m516 -3 c-9 -16 -10 -14 -9 8 1
15 6 23 11 18 4 -4 4 -16 -2 -26z m-22 16 c0 -5 -5 -10 -11 -10 -5 0 -7 5 -4
10 3 6 8 10 11 10 2 0 4 -4 4 -10z m-1380 -34 c0 -2 -7 -7 -16 -10 -8 -3 -12
-2 -9 4 6 10 25 14 25 6z m264 -41 c-4 -8 -11 -12 -16 -9 -6 4 -5 10 3 15 19
12 19 11 13 -6z m-474 1 c0 -11 -19 -15 -25 -6 -3 5 1 10 9 10 9 0 16 -2 16
-4z m1550 -32 c0 -8 -19 -13 -24 -6 -3 5 1 9 9 9 8 0 15 -2 15 -3z m-1793 -10
c-3 -3 -12 -4 -19 -1 -8 3 -5 6 6 6 11 1 17 -2 13 -5z m-7 -25 c0 -4 -9 -7
-19 -6 -11 0 -18 4 -16 7 6 9 35 8 35 -1z m-20 -34 c0 -8 -4 -15 -8 -15 -5 0
-9 7 -9 15 0 8 4 15 9 15 4 0 8 -7 8 -15z m240 -5 c0 -5 -4 -10 -10 -10 -5 0
-10 5 -10 10 0 6 5 10 10 10 6 0 10 -4 10 -10z m1285 0 c3 -5 1 -10 -4 -10 -6
0 -11 5 -11 10 0 6 2 10 4 10 3 0 8 -4 11 -10z m-1545 -25 c11 -13 10 -14 -4
-9 -9 3 -16 10 -16 15 0 13 6 11 20 -6z m268 -4 c2 -1 0 -6 -3 -11 -5 -8 -11
-8 -19 -1 -7 6 -17 7 -21 3 -5 -4 -5 -2 -2 5 6 9 18 10 45 4z m1252 -11 c-13
-11 -25 -20 -28 -20 -3 0 3 9 13 20 10 11 23 20 28 20 6 0 0 -9 -13 -20z
m-926 -2 c-3 -4 0 -8 6 -8 6 0 8 -5 4 -11 -5 -8 -10 -6 -16 5 -5 9 -14 13 -20
10 -6 -4 -8 -3 -5 3 3 5 13 10 21 10 8 0 13 -4 10 -9z m86 -74 c0 -9 6 -14 13
-11 6 2 11 10 9 16 -1 7 2 10 8 6 8 -5 8 -11 0 -20 -8 -9 -8 -15 0 -20 5 -3
10 0 10 7 0 9 3 9 10 -2 6 -10 10 -11 10 -2 0 22 16 13 17 -10 1 -13 -1 -18
-5 -13 -4 6 -14 10 -22 10 -8 -1 -25 5 -37 13 -23 14 -38 42 -23 42 6 0 10 -7
10 -16z m-716 -49 c-4 -8 -11 -15 -17 -15 -6 0 -3 -6 8 -13 12 -9 14 -16 7
-21 -6 -4 -9 -13 -6 -20 3 -7 -3 -17 -13 -20 -14 -6 -15 -5 -6 5 7 7 9 19 4
28 -6 13 -7 46 -2 66 0 3 8 5 16 5 9 0 12 -6 9 -15z m240 -2 c4 -10 1 -11 -13
-4 -10 6 -21 8 -24 5 -3 -3 -7 -1 -10 3 -3 5 5 9 18 9 14 0 27 -6 29 -13z
m640 5 c-8 -12 10 -10 24 4 8 8 12 8 12 1 0 -18 -32 -25 -47 -10 -12 12 -12
14 1 14 8 0 13 -4 10 -9z m827 -51 c-10 -9 -11 -8 -5 6 3 10 9 15 12 12 3 -3
0 -11 -7 -18z m-20 -50 c-10 -9 -11 -8 -5 6 3 10 9 15 12 12 3 -3 0 -11 -7
-18z m11 -29 c-7 -7 -12 -8 -12 -2 0 14 12 26 19 19 2 -3 -1 -11 -7 -17z
m-1472 -28 c-12 -8 -12 -10 -1 -10 8 0 12 -3 8 -6 -9 -9 -28 6 -22 17 4 5 12
9 18 9 7 0 6 -4 -3 -10z m5 -48 c-3 -3 -11 0 -18 7 -9 10 -8 11 6 5 10 -3 15
-9 12 -12z m1160 -70 c-6 -7 -34 11 -29 19 3 5 11 3 19 -4 7 -6 12 -13 10 -15z
m236 9 c-6 -10 -7 -22 -3 -26 4 -5 1 -5 -6 -1 -9 5 -9 12 -2 27 6 10 13 19 16
19 2 0 0 -8 -5 -19z m-1329 -119 c-7 -2 -9 -9 -6 -14 4 -7 2 -8 -4 -4 -6 4 -9
13 -6 21 4 8 11 12 17 8 8 -5 7 -8 -1 -11z m1012 -12 c-3 -3 -11 -5 -17 -5 -7
0 -11 -9 -9 -20 2 -16 1 -17 -7 -6 -13 20 -3 40 19 38 11 -1 17 -4 14 -7z
m-1219 -80 c-3 -5 -1 -11 5 -15 6 -4 8 -11 4 -16 -3 -5 -10 -7 -15 -3 -5 3 -7
9 -4 14 3 5 1 11 -5 15 -6 4 -8 11 -4 16 3 5 10 7 15 3 5 -3 7 -9 4 -14z
m1131 -16 c2 -12 -1 -13 -12 -3 -7 6 -11 16 -8 21 7 11 17 3 20 -18z m-1015
-118 c-9 -10 -8 -15 4 -19 9 -4 12 -13 8 -23 -5 -14 -8 -13 -19 7 -11 22 -4
49 13 49 3 0 0 -6 -6 -14z m844 -16 c-3 -5 -12 -10 -18 -10 -7 0 -6 4 3 10 19
12 23 12 15 0z m-95 -20 c8 -16 8 -20 -2 -18 -17 4 -28 20 -22 30 8 12 12 10
24 -12z m164 -176 c9 -3 16 -11 16 -17 0 -6 -3 -7 -7 -4 -3 4 -12 2 -19 -4 -8
-7 -14 -7 -19 1 -4 6 -3 10 2 9 20 -3 27 2 13 11 -17 11 -10 13 14 4z m-544
-44 c0 -7 -13 -7 -38 -1 -2 1 -1 5 3 11 6 10 35 2 35 -10z m444 -15 c3 -8 -2
-12 -11 -11 -9 2 -17 10 -19 19 -2 18 22 12 30 -8z m-349 -15 c3 -5 1 -10 -4
-10 -6 0 -11 5 -11 10 0 6 2 10 4 10 3 0 8 -4 11 -10z"/>
<path d="M1569 3243 c-13 -16 -12 -17 4 -4 16 13 21 21 13 21 -2 0 -10 -8 -17
-17z"/>
<path d="M2413 2395 c0 -8 4 -12 9 -9 4 3 8 9 8 15 0 5 -4 9 -8 9 -5 0 -9 -7
-9 -15z"/>
<path d="M1526 2092 c-4 -7 -2 -12 5 -12 9 0 9 -3 0 -14 -10 -12 -9 -14 6 -11
10 1 17 8 16 14 -2 6 2 11 7 11 6 0 10 5 10 11 0 8 -4 8 -14 0 -11 -9 -15 -9
-18 1 -3 9 -6 9 -12 0z"/>
<path d="M2010 3575 c0 -8 2 -15 4 -15 2 0 6 7 10 15 3 8 1 15 -4 15 -6 0 -10
-7 -10 -15z"/>
<path d="M2190 3586 c0 -2 7 -9 15 -16 13 -11 14 -10 9 4 -5 14 -24 23 -24 12z"/>
<path d="M2437 3525 c-6 -15 10 -32 20 -21 4 3 1 6 -5 6 -6 0 -9 7 -6 15 4 8
4 15 1 15 -3 0 -7 -7 -10 -15z"/>
<path d="M1800 3495 c15 -18 0 -20 -20 -2 -12 10 -12 9 -2 -4 6 -9 8 -19 4
-24 -4 -4 3 -2 16 4 26 14 28 26 6 35 -14 5 -15 4 -4 -9z"/>
<path d="M2465 3491 c-3 -5 0 -13 6 -17 7 -4 9 -3 5 4 -3 5 0 13 6 15 9 4 10
6 1 6 -6 1 -14 -3 -18 -8z"/>
<path d="M1749 3478 c-6 -22 -5 -39 3 -45 6 -3 8 -1 4 5 -3 6 -2 13 4 17 13 8
13 25 0 25 -5 0 -10 -1 -11 -2z"/>
<path d="M1715 3450 c3 -5 8 -10 11 -10 2 0 4 5 4 10 0 6 -5 10 -11 10 -5 0
-7 -4 -4 -10z"/>
<path d="M1637 3423 c-10 -9 -9 -23 1 -23 5 0 9 7 9 15 0 17 -1 18 -10 8z"/>
<path d="M1660 3390 c0 -5 7 -7 15 -4 8 4 15 8 15 10 0 2 -7 4 -15 4 -8 0 -15
-4 -15 -10z"/>
<path d="M1597 3345 c-4 -8 -3 -16 1 -19 4 -3 9 4 9 15 2 23 -3 25 -10 4z"/>
<path d="M1885 3250 c-4 -6 -12 -7 -18 -4 -7 4 -9 4 -5 -1 4 -4 3 -14 -2 -20
-11 -13 15 -43 27 -31 3 3 1 6 -7 6 -8 0 -9 4 -3 13 12 14 24 47 18 47 -2 0
-7 -5 -10 -10z"/>
<path d="M2418 3203 c-9 -18 -2 -36 15 -39 14 -2 15 1 8 10 -6 7 -8 15 -5 18
3 3 1 9 -5 12 -5 4 -11 3 -13 -1z"/>
<path d="M2760 3130 c0 -5 5 -10 10 -10 6 0 10 5 10 10 0 6 -4 10 -10 10 -5 0
-10 -4 -10 -10z"/>
<path d="M2453 3093 c0 -8 6 -9 19 -2 10 5 18 11 18 12 0 2 -8 3 -18 3 -10 0
-19 -6 -19 -13z"/>
<path d="M1755 3090 c3 -5 8 -10 11 -10 2 0 4 5 4 10 0 6 -5 10 -11 10 -5 0
-7 -4 -4 -10z"/>
<path d="M2812 3050 c0 -14 2 -19 5 -12 2 6 2 18 0 25 -3 6 -5 1 -5 -13z"/>
<path d="M2500 3030 c0 -5 6 -9 13 -7 6 1 11 -6 10 -17 -1 -11 2 -15 8 -9 13
13 1 43 -17 43 -8 0 -14 -4 -14 -10z"/>
<path d="M2784 3013 c10 -11 37 -12 30 -2 -3 5 -12 9 -21 9 -9 0 -13 -3 -9 -7z"/>
<path d="M2531 2976 c-9 -10 -8 -15 2 -19 8 -3 13 3 13 14 0 23 0 23 -15 5z"/>
<path d="M1416 2965 c-9 -26 -7 -32 5 -12 6 10 9 21 6 23 -2 3 -7 -2 -11 -11z"/>
<path d="M1877 2963 c4 -9 0 -11 -11 -7 -9 3 -16 1 -16 -6 0 -6 -4 -9 -9 -5
-5 3 -12 1 -15 -4 -4 -5 -2 -12 3 -15 5 -4 13 -2 16 4 5 8 12 7 23 -2 9 -7 13
-8 10 -3 -13 22 29 51 48 33 9 -10 24 0 24 15 0 7 -4 6 -10 -3 -5 -8 -10 -10
-10 -4 0 7 -13 11 -29 10 -19 0 -27 -5 -24 -13z"/>
<path d="M1433 2915 c0 -21 2 -23 14 -14 10 9 11 14 2 19 -8 6 -8 9 2 13 10 4
10 6 -2 6 -11 1 -16 -7 -16 -24z"/>
<path d="M1978 2926 c-10 -7 -18 -17 -18 -21 0 -4 7 -2 15 5 10 9 15 9 15 1 0
-6 8 -11 18 -11 16 1 16 1 -1 11 -9 6 -15 14 -12 20 8 12 3 11 -17 -5z"/>
<path d="M2542 2922 c4 -15 0 -25 -10 -32 -10 -5 -12 -10 -5 -10 23 0 39 45
21 57 -7 4 -9 -2 -6 -15z"/>
<path d="M1696 2891 c-4 -6 -2 -11 5 -11 9 0 9 -3 0 -14 -7 -8 -14 -23 -16
-35 -3 -18 -1 -20 16 -10 16 8 18 14 9 24 -15 18 15 14 33 -5 10 -10 9 -11 -1
-5 -9 4 -15 0 -19 -14 -3 -11 -9 -18 -14 -16 -4 3 -13 -3 -18 -14 -14 -25 -14
-31 0 -31 5 0 7 5 4 10 -11 17 7 11 21 -7 12 -17 12 -17 11 2 -2 15 3 19 18
16 19 -3 19 -2 2 17 -16 18 -16 20 -2 26 9 3 13 10 10 16 -3 5 0 10 7 10 13 1
-20 24 -35 25 -4 0 -12 6 -16 14 -6 9 -11 10 -15 2z m34 -97 c0 -8 -19 -13
-24 -6 -3 5 1 9 9 9 8 0 15 -2 15 -3z"/>
<path d="M2030 2889 c0 -5 5 -7 10 -4 6 3 10 8 10 11 0 2 -4 4 -10 4 -5 0 -10
-5 -10 -11z"/>
<path d="M1350 2876 c0 -2 7 -7 16 -10 8 -3 12 -2 9 4 -6 10 -25 14 -25 6z"/>
<path d="M2046 2848 c3 -5 10 -6 15 -3 13 9 11 12 -6 12 -8 0 -12 -4 -9 -9z"/>
<path d="M2020 2846 c0 -2 8 -10 18 -17 15 -13 16 -12 3 4 -13 16 -21 21 -21
13z"/>
<path d="M2789 2838 c-8 -26 -5 -36 8 -31 11 4 12 8 3 13 -9 6 -9 9 1 13 10 4
10 6 2 6 -7 1 -13 0 -14 -1z"/>
<path d="M2500 2770 c8 -5 10 -10 4 -10 -6 0 -11 -7 -11 -16 0 -14 2 -14 14 2
9 12 13 13 13 4 0 -7 3 -10 6 -7 9 8 -15 37 -30 37 -6 0 -4 -5 4 -10z"/>
<path d="M1358 2753 c6 -2 12 -9 12 -14 0 -6 -4 -8 -9 -4 -5 3 -12 1 -15 -4
-7 -11 13 -9 33 3 11 7 11 10 0 17 -8 5 -18 8 -24 8 -5 0 -4 -3 3 -6z"/>
<path d="M1986 2752 c-4 -7 -2 -12 3 -12 6 0 2 -14 -9 -32 -18 -30 -18 -48 0
-48 4 0 6 9 3 20 -3 12 0 20 6 20 7 0 9 -5 5 -12 -4 -7 -3 -8 5 -4 6 4 8 12 5
18 -5 8 -1 9 12 5 18 -7 18 -6 -1 8 -11 9 -19 18 -17 21 2 2 2 10 0 16 -3 9
-6 9 -12 0z"/>
<path d="M1336 2693 c-6 -14 -5 -15 5 -6 7 7 10 15 7 18 -3 3 -9 -2 -12 -12z"/>
<path d="M1360 2690 c-6 -11 -7 -20 -3 -20 4 0 -1 -6 -12 -13 -14 -11 -15 -16
-5 -22 10 -6 9 -9 -1 -16 -12 -8 -12 -10 0 -18 11 -7 11 -9 0 -13 -10 -3 -9
-6 3 -11 13 -4 16 -1 12 18 -2 13 2 28 9 32 7 4 12 25 12 46 1 43 -1 44 -15
17z m4 -45 c-4 -8 -11 -12 -16 -9 -6 4 -5 10 3 15 19 12 19 11 13 -6z"/>
<path d="M2470 2691 c0 -6 6 -11 13 -11 8 0 7 -4 -3 -10 -9 -6 -10 -10 -3 -10
19 0 24 17 8 30 -10 9 -15 9 -15 1z"/>
<path d="M2760 2670 c-8 -5 -10 -10 -5 -10 6 0 17 5 25 10 8 5 11 10 5 10 -5
0 -17 -5 -25 -10z"/>
<path d="M2796 2665 c-11 -8 -15 -15 -9 -15 6 0 16 7 23 15 16 19 11 19 -14 0z"/>
<path d="M1620 2612 c0 -5 7 -9 15 -9 8 0 12 4 9 9 -3 4 -9 8 -15 8 -5 0 -9
-4 -9 -8z"/>
<path d="M1699 2608 c10 -14 9 -18 -6 -28 -15 -10 -15 -11 -1 -6 9 3 19 0 22
-7 2 -7 4 -2 2 11 -1 12 -9 28 -16 35 -12 10 -12 9 -1 -5z"/>
<path d="M1946 2601 c-7 -11 22 -36 31 -27 3 3 1 6 -6 6 -7 0 -10 4 -6 9 3 5
1 12 -4 15 -5 4 -12 2 -15 -3z"/>
<path d="M1621 2531 c-6 -10 -7 -21 -3 -25 3 -4 -1 -4 -11 0 -13 5 -17 1 -17
-16 0 -14 5 -20 13 -17 15 6 21 -29 6 -38 -5 -3 -6 1 -3 9 3 9 1 16 -6 16 -6
0 -9 -4 -6 -9 3 -5 -1 -14 -10 -21 -8 -7 -13 -19 -10 -26 3 -8 -2 -18 -11 -23
-14 -8 -15 -12 -4 -25 19 -23 30 -20 26 9 -1 15 4 30 14 36 14 9 14 10 -1 5
-10 -3 -18 -1 -18 4 0 9 18 14 48 13 9 -1 11 5 6 15 -9 24 -13 82 -5 82 4 0 8
7 8 15 0 20 -4 19 -16 -4z m-41 -161 c0 -5 -5 -10 -11 -10 -5 0 -7 5 -4 10 3
6 8 10 11 10 2 0 4 -4 4 -10z"/>
<path d="M1590 2530 c0 -5 5 -10 10 -10 6 0 10 5 10 10 0 6 -4 10 -10 10 -5 0
-10 -4 -10 -10z"/>
<path d="M2426 2494 c-4 -9 -4 -19 -1 -22 2 -3 7 3 11 12 4 9 4 19 1 22 -2 3
-7 -3 -11 -12z"/>
<path d="M1280 2490 c-8 -5 -10 -10 -5 -10 6 0 17 5 25 10 8 5 11 10 5 10 -5
0 -17 -5 -25 -10z"/>
<path d="M2395 2470 c-3 -5 -1 -10 4 -10 6 0 11 5 11 10 0 6 -2 10 -4 10 -3 0
-8 -4 -11 -10z"/>
<path d="M2676 2442 c-3 -5 1 -9 9 -9 8 0 12 4 9 9 -3 4 -7 8 -9 8 -2 0 -6 -4
-9 -8z"/>
<path d="M1870 2365 c-11 -13 -10 -14 4 -9 9 3 16 10 16 15 0 13 -6 11 -20 -6z"/>
<path d="M2670 2369 c0 -5 -5 -7 -11 -3 -8 4 -8 0 0 -15 13 -24 23 -28 15 -6
-4 8 -1 15 5 15 6 0 11 5 11 10 0 6 -4 10 -10 10 -5 0 -10 -5 -10 -11z"/>
<path d="M1268 2359 c-20 -11 -25 -43 -5 -36 6 2 12 8 12 13 0 5 4 15 8 22 10
14 8 15 -15 1z"/>
<path d="M1860 2305 c-7 -9 -10 -18 -7 -21 3 -3 10 4 17 15 13 25 8 27 -10 6z"/>
<path d="M1505 2272 c-5 -4 -11 -14 -13 -22 -2 -12 1 -11 11 2 8 10 17 15 20
11 4 -3 7 -1 7 5 0 14 -10 15 -25 4z"/>
<path d="M1547 2269 c7 -7 15 -10 18 -7 3 3 -2 9 -12 12 -14 6 -15 5 -6 -5z"/>
<path d="M2622 2255 c15 -16 20 -17 30 -6 11 11 10 13 0 7 -7 -4 -21 -2 -30 5
-15 12 -15 11 0 -6z"/>
<path d="M1554 2169 c0 -10 4 -19 8 -19 4 0 8 6 8 14 0 8 -4 17 -8 20 -4 2 -8
-4 -8 -15z"/>
<path d="M1838 2173 c7 -3 16 -2 19 1 4 3 -2 6 -13 5 -11 0 -14 -3 -6 -6z"/>
<path d="M2586 2152 c-2 -4 0 -14 6 -22 8 -12 9 -12 4 2 -3 10 1 18 12 21 16
4 16 5 0 6 -9 0 -19 -3 -22 -7z"/>
<path d="M1475 2100 c-3 -5 -1 -10 4 -10 6 0 11 5 11 10 0 6 -2 10 -4 10 -3 0
-8 -4 -11 -10z"/>
<path d="M2286 2081 c-4 -5 -2 -12 3 -15 5 -4 12 -2 15 3 4 5 2 12 -3 15 -5 4
-12 2 -15 -3z"/>
<path d="M2250 2056 c0 -2 7 -7 16 -10 8 -3 12 -2 9 4 -6 10 -25 14 -25 6z"/>
<path d="M1453 2027 c0 -8 5 -14 11 -14 6 0 16 -2 23 -4 6 -2 11 1 11 6 0 6
-5 9 -10 7 -6 -1 -16 2 -22 7 -9 8 -13 7 -13 -2z"/>
<path d="M1787 2009 c7 -7 15 -10 18 -7 3 3 -2 9 -12 12 -14 6 -15 5 -6 -5z"/>
<path d="M2556 1964 c-3 -9 -2 -22 2 -31 6 -10 9 -5 9 16 0 35 -2 38 -11 15z"/>
<path d="M1442 1926 c7 -8 15 -12 17 -11 5 6 -10 25 -20 25 -5 0 -4 -6 3 -14z"/>
<path d="M1125 1910 c3 -5 11 -10 16 -10 6 0 7 5 4 10 -3 6 -11 10 -16 10 -6
0 -7 -4 -4 -10z"/>
<path d="M1470 1913 c0 -5 5 -15 10 -23 7 -12 9 -10 7 8 -1 19 -17 33 -17 15z"/>
<path d="M2514 1912 c3 -6 -1 -15 -9 -20 -13 -7 -12 -10 9 -20 16 -7 27 -8 31
-1 4 5 3 9 -2 8 -26 -4 -35 1 -24 15 9 11 9 16 0 22 -7 4 -9 3 -5 -4z"/>
<path d="M1756 1885 c-9 -26 -7 -32 5 -12 6 10 9 21 6 23 -2 3 -7 -2 -11 -11z"/>
<path d="M2193 1875 c0 -8 4 -15 9 -15 4 0 8 4 8 9 0 6 -4 12 -8 15 -5 3 -9
-1 -9 -9z"/>
<path d="M1435 1850 c-3 -5 -1 -10 4 -10 6 0 11 5 11 10 0 6 -2 10 -4 10 -3 0
-8 -4 -11 -10z"/>
<path d="M1104 1795 c-10 -8 -14 -15 -8 -15 6 0 17 7 24 15 16 19 9 19 -16 0z"/>
<path d="M2461 1777 c-9 -12 -8 -16 3 -20 19 -7 32 11 19 24 -6 6 -14 5 -22
-4z"/>
<path d="M2836 1777 c3 -10 9 -15 12 -12 3 3 0 11 -7 18 -10 9 -11 8 -5 -6z"/>
<path d="M1435 1760 c-3 -5 -1 -10 4 -10 6 0 11 5 11 10 0 6 -2 10 -4 10 -3 0
-8 -4 -11 -10z"/>
<path d="M2816 1762 c2 -2 -1 -13 -7 -24 -9 -16 -13 -17 -26 -6 -15 12 -15 11
-3 -9 l14 -21 19 25 c12 15 16 27 10 32 -5 5 -8 6 -7 3z"/>
<path d="M1401 1751 c-8 -5 -9 -11 -3 -15 5 -3 12 1 16 9 6 17 6 18 -13 6z"/>
<path d="M1460 1744 c0 -9 -5 -12 -12 -8 -7 4 -8 3 -4 -5 6 -9 11 -9 22 0 7 6
11 15 8 20 -8 14 -14 11 -14 -7z"/>
<path d="M2890 1751 c0 -6 4 -12 8 -15 5 -3 9 1 9 9 0 8 -4 15 -9 15 -4 0 -8
-4 -8 -9z"/>
<path d="M1379 1703 c-10 -11 -10 -14 -1 -9 7 4 12 2 12 -6 0 -11 2 -10 9 0 7
11 9 11 14 -2 4 -10 1 -16 -7 -16 -7 0 -19 -6 -25 -14 -16 -20 3 -30 22 -12
11 11 17 12 28 3 8 -8 8 -6 -1 7 -8 11 -14 22 -13 25 5 10 -8 41 -16 41 -5 0
-15 -8 -22 -17z"/>
<path d="M2155 1690 c-3 -5 -1 -10 4 -10 6 0 11 5 11 10 0 6 -2 10 -4 10 -3 0
-8 -4 -11 -10z"/>
<path d="M2950 1675 c0 -5 5 -17 10 -25 5 -8 10 -10 10 -5 0 6 -5 17 -10 25
-5 8 -10 11 -10 5z"/>
<path d="M2170 1662 c0 -5 7 -9 15 -9 8 0 12 4 9 9 -3 4 -9 8 -15 8 -5 0 -9
-4 -9 -8z"/>
<path d="M2140 1650 c-9 -6 -10 -10 -3 -10 6 0 15 5 18 10 8 12 4 12 -15 0z"/>
<path d="M1052 1646 c4 -5 0 -15 -10 -23 -16 -12 -16 -13 1 -7 10 4 17 2 15
-4 -2 -5 1 -11 6 -11 17 -3 15 28 -2 41 -10 7 -14 8 -10 4z"/>
<path d="M2425 1633 c3 -3 0 -12 -5 -18 -7 -9 -6 -14 3 -18 14 -5 17 28 4 38
-4 3 -5 2 -2 -2z"/>
<path d="M1377 1619 c-9 -5 -22 -7 -27 -4 -6 3 -11 0 -12 -7 0 -7 -2 -17 -2
-23 -2 -18 -17 -35 -25 -30 -5 2 -16 -4 -25 -14 -15 -16 -14 -19 11 -42 l28
-24 -20 24 c-17 21 -17 23 -3 18 13 -4 15 -2 11 10 -4 10 -2 14 4 10 6 -4 16
0 23 8 15 19 37 21 23 3 -12 -16 -13 -48 -1 -48 4 0 8 4 8 9 0 6 9 8 21 6 17
-4 19 -2 9 11 -10 11 -16 12 -26 3 -14 -12 -20 2 -7 15 4 4 8 15 8 24 0 9 6
17 13 17 15 0 33 26 26 37 -7 10 -15 10 -37 -3z m-6 -27 c-5 -9 -20 -26 -33
-37 l-23 -20 19 23 c11 12 15 22 10 22 -5 0 0 7 10 15 26 19 29 19 17 -3z
m-61 -46 c0 -2 -8 -10 -17 -17 -16 -13 -17 -12 -4 4 13 16 21 21 21 13z"/>
<path d="M2453 1611 c0 -11 5 -18 9 -15 4 3 5 11 1 19 -7 21 -12 19 -10 -4z"/>
<path d="M1040 1585 c14 -17 13 -18 -3 -12 -10 4 -16 3 -12 -2 6 -10 45 -11
45 -1 0 3 -10 11 -22 19 -22 13 -22 13 -8 -4z"/>
<path d="M2135 1590 c-3 -5 -2 -10 4 -10 5 0 13 5 16 10 3 6 2 10 -4 10 -5 0
-13 -4 -16 -10z"/>
<path d="M2385 1540 c3 -5 1 -18 -4 -28 -7 -14 -6 -19 4 -19 8 0 11 7 7 16 -5
14 -4 14 13 1 18 -15 18 -14 1 13 -17 24 -36 41 -21 17z"/>
<path d="M1381 1483 c0 -11 3 -13 6 -5 2 6 10 9 15 6 7 -4 8 -2 4 4 -11 18
-26 14 -25 -5z"/>
<path d="M1399 1470 c-1 -3 -3 -15 -4 -28 -2 -22 -1 -22 13 -8 13 12 14 19 4
28 -7 7 -13 10 -13 8z"/>
<path d="M2070 1419 c0 -5 -4 -8 -9 -5 -5 3 -15 -2 -22 -12 -12 -15 -12 -16 2
-5 12 10 18 10 27 1 7 -7 12 -10 13 -7 0 2 2 12 4 22 2 9 -1 17 -6 17 -5 0 -9
-5 -9 -11z"/>
<path d="M2550 1390 c0 -5 5 -10 10 -10 6 0 10 5 10 10 0 6 -4 10 -10 10 -5 0
-10 -4 -10 -10z"/>
<path d="M983 1375 c0 -8 4 -12 9 -9 5 3 6 10 3 15 -9 13 -12 11 -12 -6z"/>
<path d="M2333 1368 c0 -7 -4 -21 -8 -32 -6 -14 -4 -17 6 -14 14 5 24 58 10
58 -4 0 -8 -6 -8 -12z"/>
<path d="M2521 1364 c0 -11 3 -14 6 -6 3 7 2 16 -1 19 -3 4 -6 -2 -5 -13z"/>
<path d="M2020 1344 c0 -8 5 -12 10 -9 6 4 8 11 5 16 -9 14 -15 11 -15 -7z"/>
<path d="M1415 1330 c-3 -6 1 -7 9 -4 18 7 21 14 7 14 -6 0 -13 -4 -16 -10z"/>
<path d="M1460 1261 c0 -6 4 -13 10 -16 6 -3 7 1 4 9 -7 18 -14 21 -14 7z"/>
<path d="M1484 1216 c10 -8 15 -20 10 -27 -4 -8 -3 -10 4 -5 18 11 14 24 -10
36 -22 10 -22 10 -4 -4z"/>
<path d="M2204 1191 c1 -10 -6 -15 -16 -13 -10 2 -18 -1 -18 -6 0 -15 34 -10
47 7 16 21 16 28 -1 28 -7 0 -13 -7 -12 -16z"/>
<path d="M2237 1185 c-4 -8 -3 -16 1 -19 4 -3 9 4 9 15 2 23 -3 25 -10 4z"/>
<path d="M935 1179 c-4 -5 -13 -8 -21 -5 -7 3 -16 1 -19 -5 -4 -5 -3 -9 2 -8
22 4 33 -3 33 -22 0 -11 5 -17 10 -14 6 4 8 11 4 16 -3 5 -1 16 6 24 7 8 7 15
1 19 -5 4 -13 1 -16 -5z"/>
<path d="M1246 1168 c3 -5 10 -6 15 -3 13 9 11 12 -6 12 -8 0 -12 -4 -9 -9z"/>
<path d="M895 1139 c-4 -6 -5 -12 -2 -15 2 -3 7 2 10 11 7 17 1 20 -8 4z"/>
<path d="M2699 1124 c-18 -22 -20 -42 -3 -48 11 -4 12 -1 5 12 -9 17 10 47 23
35 3 -4 6 -1 6 5 0 17 -15 15 -31 -4z"/>
<path d="M1615 1101 c-3 -5 -2 -12 3 -15 5 -3 9 1 9 9 0 17 -3 19 -12 6z"/>
<path d="M2396 1083 c-6 -14 -5 -15 5 -6 7 7 10 15 7 18 -3 3 -9 -2 -12 -12z"/>
<path d="M2018 1078 c-15 -9 -14 -9 27 -13 17 -2 24 -1 17 2 -6 3 -10 8 -8 12
7 10 -20 10 -36 -1z"/>
<path d="M1906 1058 c3 -4 9 -8 15 -8 5 0 9 4 9 8 0 5 -7 9 -15 9 -8 0 -12 -4
-9 -9z"/>
<path d="M2670 1066 c0 -2 7 -7 16 -10 8 -3 12 -2 9 4 -6 10 -25 14 -25 6z"/>
<path d="M1756 1048 c3 -4 11 -5 19 -1 21 7 19 12 -4 10 -11 0 -18 -5 -15 -9z"/>
<path d="M873 1015 c0 -8 4 -12 9 -9 5 3 6 10 3 15 -9 13 -12 11 -12 -6z"/>
<path d="M2654 1018 c-4 -7 -4 -10 1 -6 4 4 15 2 24 -5 14 -11 14 -10 2 6 -16
20 -18 21 -27 5z"/>
<path d="M1150 969 c0 -5 5 -7 10 -4 6 3 10 8 10 11 0 2 -4 4 -10 4 -5 0 -10
-5 -10 -11z"/>
<path d="M2295 939 c-4 -6 -5 -12 -2 -15 2 -3 7 2 10 11 7 17 1 20 -8 4z"/>
<path d="M880 910 c-9 -6 -10 -10 -3 -10 6 0 15 5 18 10 8 12 4 12 -15 0z"/>
<path d="M2596 913 c6 -4 14 -15 17 -23 5 -11 6 -9 4 4 -1 11 -9 21 -17 23
-10 3 -11 2 -4 -4z"/>
<path d="M2300 889 c0 -5 5 -7 10 -4 6 3 10 8 10 11 0 2 -4 4 -10 4 -5 0 -10
-5 -10 -11z"/>
<path d="M1187 825 c-3 -7 -3 -16 1 -20 4 -4 7 -10 7 -13 2 -30 55 -70 55 -41
0 5 -4 8 -9 5 -5 -3 -14 1 -21 9 -7 8 -8 15 -3 15 5 0 10 7 10 15 0 8 -4 12
-9 9 -4 -3 -13 -2 -20 2 -8 5 -6 9 7 14 16 6 16 7 3 13 -9 3 -19 0 -21 -8z"/>
<path d="M928 799 c17 -19 15 -29 -5 -22 -16 5 -15 4 1 -9 10 -8 16 -19 13
-25 -3 -5 0 -10 7 -10 7 0 13 6 13 14 0 7 -5 13 -10 13 -5 0 -4 6 2 14 10 12
8 17 -11 27 -19 9 -21 9 -10 -2z"/>
<path d="M2254 792 c3 -6 -2 -12 -11 -14 -16 -3 -17 -4 -1 -10 19 -8 33 17 16
28 -6 4 -8 3 -4 -4z"/>
<path d="M2527 726 c-3 -8 -2 -18 4 -22 16 -9 22 2 11 21 -8 15 -10 16 -15 1z"/>
<path d="M1260 696 c0 -2 8 -10 18 -17 15 -13 16 -12 3 4 -13 16 -21 21 -21
13z"/>
<path d="M2474 655 c-10 -8 -14 -15 -8 -15 5 0 15 5 22 12 8 8 12 8 12 1 0
-14 -25 -34 -33 -26 -4 3 -7 4 -7 1 0 -3 8 -12 17 -19 9 -8 14 -9 10 -3 -4 7
0 17 8 24 16 13 20 40 7 40 -5 0 -17 -7 -28 -15z"/>
<path d="M2170 639 c0 -5 5 -7 10 -4 6 3 10 8 10 11 0 2 -4 4 -10 4 -5 0 -10
-5 -10 -11z"/>
<path d="M1265 630 c3 -5 8 -10 11 -10 2 0 4 5 4 10 0 6 -5 10 -11 10 -5 0 -7
-4 -4 -10z"/>
<path d="M1990 511 c0 -6 4 -13 10 -16 6 -3 7 1 4 9 -7 18 -14 21 -14 7z"/>
<path d="M2346 489 c-15 -11 -24 -24 -21 -29 3 -5 0 -10 -7 -12 -7 -3 -4 -7 7
-12 11 -4 16 -4 12 0 -9 10 13 35 24 28 5 -3 9 -2 8 3 -4 22 2 32 16 27 8 -4
15 -4 15 -1 0 16 -32 13 -54 -4z m14 -3 c0 -2 -8 -10 -17 -17 -16 -13 -17 -12
-4 4 13 16 21 21 21 13z"/>
<path d="M1553 460 c1 -11 5 -20 9 -20 11 0 10 28 -1 35 -6 3 -9 -4 -8 -15z"/>
<path d="M1675 470 c3 -5 8 -10 11 -10 2 0 4 5 4 10 0 6 -5 10 -11 10 -5 0 -7
-4 -4 -10z"/>
<path d="M1755 450 c-8 -13 14 -42 26 -34 16 9 10 26 -7 20 -12 -4 -15 -2 -10
9 6 17 0 20 -9 5z"/>
<path d="M1147 369 c7 -7 15 -10 18 -7 3 3 -2 9 -12 12 -14 6 -15 5 -6 -5z"/>
<path d="M2155 300 c-3 -5 -1 -10 4 -10 6 0 11 5 11 10 0 6 -2 10 -4 10 -3 0
-8 -4 -11 -10z"/>
<path d="M1250 291 c0 -6 4 -13 10 -16 6 -3 7 1 4 9 -7 18 -14 21 -14 7z"/>
<path d="M2134 250 c0 -13 4 -16 10 -10 7 7 7 13 0 20 -6 6 -10 3 -10 -10z"/>
<path d="M1973 217 c-3 -7 -3 -9 2 -5 4 4 14 3 21 -3 8 -7 14 -7 19 1 3 5 5
10 3 11 -27 6 -39 5 -45 -4z"/>
<path d="M1875 180 c-4 -6 -11 -8 -16 -5 -5 4 -9 2 -9 -3 0 -11 30 -25 38 -17
3 3 0 5 -7 5 -7 0 -9 5 -6 10 4 6 11 7 17 4 7 -4 8 -2 4 4 -9 15 -13 15 -21 2z"/>
<path d="M1830 161 c0 -6 4 -13 10 -16 6 -3 7 1 4 9 -7 18 -14 21 -14 7z"/>
<path d="M1686 152 c-3 -5 1 -9 9 -9 8 0 12 4 9 9 -3 4 -7 8 -9 8 -2 0 -6 -4
-9 -8z"/>
<path d="M1860 130 c-9 -6 -10 -10 -3 -10 6 0 15 5 18 10 8 12 4 12 -15 0z"/>
</g>
</svg>
